<?xml version="1.0" encoding="UTF-8"?>
<svg version="1.1" xmlns="http://www.w3.org/2000/svg" width="1280" height="1280">
<path d="M0 0 C422.4 0 844.8 0 1280 0 C1280 422.4 1280 844.8 1280 1280 C857.6 1280 435.2 1280 0 1280 C0 857.6 0 435.2 0 0 Z " fill="#FEFEFE" transform="translate(0,0)"/>
<path d="M0 0 C1.39798828 0.81791016 1.39798828 0.81791016 2.82421875 1.65234375 C15.06221102 9.13416563 26.65118277 18.08238349 37 28 C37.8559375 28.79277344 38.711875 29.58554687 39.59375 30.40234375 C71.48956283 60.87750975 93.89238416 107.80997416 95.13330078 152.06762695 C95.32663703 162.86407364 94.4621658 173.15073686 92.65625 183.78979492 C92.24867675 186.19530988 91.86485247 188.60373731 91.484375 191.01367188 C86.11129086 224.32365832 75.93554614 262.36010017 48.00390625 283.98046875 C24.01132832 300.11071945 -8.46625204 304.51105579 -36.6875 299.7421875 C-63.68471292 293.69328366 -86.27800058 275.6135232 -105 256 C-102.22326509 252.27332946 -99.44695438 248.56100973 -96.55078125 244.92578125 C-90.2988758 237.06089831 -85.70143555 229.38578301 -82 220 C-76.4445134 219.71264724 -71.79049234 220.18920469 -66.375 221.5 C-43.661752 226.61230662 -18.47504803 220.14155114 1 208 C5.13086807 205.15182202 9.08657947 202.13865375 13 199 C13.70640625 198.45988281 14.4128125 197.91976562 15.140625 197.36328125 C34.83743003 181.46972109 46.25263192 155.63177962 49 131 C50.89405107 106.89625422 41.49087903 82.03236052 26.1953125 63.4765625 C17.30152439 53.24609126 7.22219128 44.99354669 -6.69140625 43.76171875 C-21.5369411 43.37795662 -35.29539832 49.783461 -46.06640625 59.86328125 C-49.12200755 63.23987501 -51.06167165 66.9087682 -53 71 C-53.57041016 72.07507813 -53.57041016 72.07507813 -54.15234375 73.171875 C-56.04551275 76.75609531 -57.49044151 79.92353207 -58 84 C-59.32 83.67 -60.64 83.34 -62 83 C-62.00586624 82.30731018 -62.01173248 81.61462036 -62.01777649 80.90093994 C-62.08165709 73.69833766 -62.16606335 66.49618441 -62.26245117 59.29394531 C-62.29738093 56.60516634 -62.32500663 53.91645872 -62.34643555 51.22753906 C-62.3799305 47.36492923 -62.43224585 43.50296539 -62.48828125 39.640625 C-62.49467117 38.4363385 -62.5010611 37.232052 -62.50764465 35.99127197 C-62.52743881 34.87041199 -62.54723297 33.749552 -62.56762695 32.59472656 C-62.58428154 31.11579926 -62.58428154 31.11579926 -62.60127258 29.60699463 C-63.06322016 26.58664839 -64.12851081 25.35539877 -66 23 C-66.68901614 16.71435275 -65.49425802 12.83799595 -62.375 7.4375 C-62.00890625 6.78418701 -61.6428125 6.13087402 -61.265625 5.45776367 C-56.24202919 -3.31047491 -51.43682458 -8.71174628 -41.5625 -11.75 C-25.90326509 -13.27773024 -13.15669328 -7.82217576 0 0 Z " fill="#010101" transform="translate(1039,573)"/>
<path d="M0 0 C2.25875107 2.25875107 2.45786325 3.19748939 3.11328125 6.25 C3.30664062 7.15000732 3.5 8.05001465 3.69921875 8.97729492 C3.90160156 9.9747876 4.10398437 10.97228027 4.3125 12 C4.5290625 13.05743408 4.745625 14.11486816 4.96875 15.2043457 C7.61220638 28.53909331 9.50088147 41.98600658 11.36621094 55.44677734 C11.78880343 58.49512923 12.21924978 61.54219941 12.65722656 64.58837891 C14.10407882 74.65461358 15.47391502 84.72778076 16.72857666 94.81988525 C16.90371925 96.22665794 17.08063195 97.63321192 17.25970459 99.03948975 C30.83264488 205.95336446 30.83264488 205.95336446 11.8125 233.125 C11.214375 233.74375 10.61625 234.3625 10 235 C5.25 234.125 5.25 234.125 3 233 C2.91878906 234.41925781 2.91878906 234.41925781 2.8359375 235.8671875 C2.06054093 241.20910644 -0.68730304 245.52535898 -3.375 250.125 C-3.90939697 251.04990234 -4.44379395 251.97480469 -4.99438477 252.92773438 C-9.59813959 260.69940943 -14.76804484 267.46284641 -21 274 C-21.763125 274.82757812 -22.52625 275.65515625 -23.3125 276.5078125 C-26.64722166 279.6001852 -30.22383753 281.95603469 -34.0625 284.375 C-34.81837402 284.85469238 -35.57424805 285.33438477 -36.35302734 285.82861328 C-37.86951144 286.78668085 -39.38834915 287.74103447 -40.90966797 288.69140625 C-42.69963773 289.81196663 -44.47800093 290.95103061 -46.25390625 292.09375 C-60.38089801 300.85825101 -76.28692499 304.87081514 -92.86328125 302.609375 C-105.55484724 299.60499823 -117.75698688 293.13322131 -126 283 C-126.48533203 282.4107373 -126.97066406 281.82147461 -127.47070312 281.21435547 C-134.42346058 272.70081802 -140.60701082 264.06093334 -145.48999023 254.18164062 C-146.65676476 251.84816756 -146.65676476 251.84816756 -149 249 C-152.34197888 248.39857015 -154.74857481 248.18199673 -157.68469238 250.10121155 C-159.47605497 251.71407389 -161.11541482 253.40778337 -162.75390625 255.17578125 C-163.68806618 256.13547066 -163.68806618 256.13547066 -164.64109802 257.11454773 C-166.63225642 259.16458735 -168.59848822 261.23646591 -170.5625 263.3125 C-181.93431763 275.22006546 -193.43565848 286.96743296 -208 295 C-208.77408203 295.43135254 -209.54816406 295.86270508 -210.34570312 296.30712891 C-223.77321188 303.52840808 -234.80609165 306.7798968 -250 305 C-251.2375 304.89429688 -252.475 304.78859375 -253.75 304.6796875 C-263.0600407 303.29635598 -268.46035993 298.28360083 -274 291 C-280.84733052 279.48126843 -281.57022027 266.02553747 -279.1875 253 C-273.4899249 233.82155525 -252.13034109 216.83908158 -237.4675293 204.25976562 C-236.62125992 203.53330581 -235.78864305 202.78864305 -235 202 C-233.14630389 201.91262355 -231.28932459 201.89301847 -229.43359375 201.90234375 C-228.30888672 201.90556641 -227.18417969 201.90878906 -226.02539062 201.91210938 C-224.84138672 201.92048828 -223.65738281 201.92886719 -222.4375 201.9375 C-221.24962891 201.94201172 -220.06175781 201.94652344 -218.83789062 201.95117188 C-215.89187774 201.96300325 -212.94596319 201.97948713 -210 202 C-210 202.66 -210 203.32 -210 204 C-211.60700233 205.33966923 -213.26293841 206.62080161 -214.9375 207.875 C-222.99868607 214.32186586 -231.03432956 222.60718781 -232.265625 233.30859375 C-232.22963196 238.21264573 -231.59295921 242.30962011 -230 247 C-229.814375 248.0725 -229.62875 249.145 -229.4375 250.25 C-227.72179617 253.53221603 -226.96116696 253.67411155 -223.5625 254.8125 C-222.04602648 255.22472097 -220.52537709 255.62205452 -219 256 C-218.01 256.33 -217.02 256.66 -216 257 C-199.52770078 258.81392247 -199.52770078 258.81392247 -184.3125 253.875 C-177.34317533 247.2657571 -173.86152253 238.40960852 -173.40698242 228.91235352 C-173.30677611 222.7248047 -173.82298089 219.66794367 -178 215 C-178 214.34 -178 213.68 -178 213 C-178.68449219 212.75378906 -179.36898437 212.50757813 -180.07421875 212.25390625 C-183.5186406 210.77772546 -186.64095182 208.91397206 -189.8125 206.9375 C-190.40998047 206.57333984 -191.00746094 206.20917969 -191.62304688 205.83398438 C-193.10140371 204.91993746 -194.55348068 203.96364025 -196 203 C-196 202.67 -196 202.34 -196 202 C-186.15173399 201.62785184 -176.30516035 201.34430769 -166.45127392 201.17100525 C-161.87423677 201.08778162 -157.30203559 200.97514286 -152.7277832 200.79296875 C-148.30526958 200.61795804 -143.88737476 200.52324119 -139.4616642 200.48196411 C-137.78140795 200.45259302 -136.10138136 200.39521793 -134.42311668 200.30831909 C-121.63246962 199.6729127 -121.63246962 199.6729127 -117.22055244 203.57302094 C-113.91439002 207.43554782 -111.40598193 211.68088522 -109.02003288 216.15465069 C-107.74033291 218.46976572 -106.2224724 220.51933284 -104.56640625 222.578125 C-104.07317871 223.19131592 -103.57995117 223.80450684 -103.07177734 224.4362793 C-102.57371582 225.03480713 -102.0756543 225.63333496 -101.5625 226.25 C-100.99740723 226.92909424 -100.43231445 227.60818848 -99.85009766 228.30786133 C-94.74992118 234.31360699 -89.37123595 240.04402961 -83.875 245.6875 C-83.07650635 246.52506836 -82.2780127 247.36263672 -81.45532227 248.22558594 C-73.40360031 256.31251831 -63.5767608 262.12123598 -52 263 C-48.90218747 262.98949894 -46.03133766 262.62457401 -43 262 C-42.30519531 261.87109375 -41.61039063 261.7421875 -40.89453125 261.609375 C-26.78181049 258.01050268 -10.73573945 241.84110995 -3 230 C-4.98 229.67 -6.96 229.34 -9 229 C-10 226 -10 226 -9 223 C-7.84204962 205.14360658 -8.74780784 187.39906646 -13 170 C-13.17176758 169.27651367 -13.34353516 168.55302734 -13.52050781 167.80761719 C-17.24868194 152.95811006 -24.94502919 139.26081265 -31.72018433 125.62355042 C-34.17118825 120.68811394 -36.58954365 115.7382424 -38.98046875 110.7734375 C-46.83090861 94.47959183 -54.80299405 78.24614827 -62.8581543 62.05252075 C-63.89440202 59.9676709 -64.92865032 57.88182581 -65.96069336 55.79489136 C-71.30538888 44.99442608 -76.73679822 34.33824006 -83.0330658 24.05514526 C-86 19.18847379 -86 19.18847379 -86 17 C-78.96914447 16.14592644 -72.07820854 15.90242782 -65 16 C-10.26647022 124.39295305 -10.26647022 124.39295305 -4.5 171.0625 C-4.37326904 172.06095947 -4.24653809 173.05941895 -4.1159668 174.08813477 C-3.73990786 177.05826203 -3.3694737 180.02904734 -3 183 C-2.78804897 184.68493216 -2.57583136 186.36983081 -2.36328125 188.0546875 C-1.9041052 191.70254243 -1.45016438 195.35102049 -1 199 C-0.47020235 142.05897861 -22.90465254 70.90139003 -52.78125 22.08984375 C-54 20 -54 20 -54 17 C-46.08 17 -38.16 17 -30 17 C-22.53831518 35.27351386 -16.87264187 53.85206011 -12.77294922 73.16699219 C-11.45586405 79.31820092 -9.78622473 85.32280042 -8.0324707 91.36328125 C-3.22129211 108.30991553 0.80014489 125.5135605 3 143 C3.09087891 143.68900391 3.18175781 144.37800781 3.27539062 145.08789062 C6.29942276 168.30114447 7.38224708 191.60647873 7 215 C8.32 215 9.64 215 11 215 C14.59255881 163.03620294 4.27778954 114.33752216 -8.41503906 64.28369141 C-11.11108152 53.64329839 -13.6931615 42.99101286 -16.02392578 32.26318359 C-17.37962036 26.16308798 -19.14506818 20.3215445 -21.21728516 14.42480469 C-22 12 -22 12 -22 10 C-21.41734375 9.9484375 -20.8346875 9.896875 -20.234375 9.84375 C-12.0992501 8.71813523 -6.51599542 4.81422342 0 0 Z " fill="#030303" transform="translate(951,553)"/>
<path d="M0 0 C0 0.99 0 1.98 0 3 C-1.26265388 4.23108753 -2.53574429 5.45346774 -3.86181641 6.6159668 C-14.23634263 15.77678168 -19.84034428 28.40579786 -22 42 C-22.10476049 45.42217594 -21.5992865 48.63282245 -21 52 C-20.84789062 52.86496094 -20.69578125 53.72992187 -20.5390625 54.62109375 C-17.88309186 66.50397539 -11.47220483 75.57101243 -1.84375 82.83203125 C1.04603946 85.03509876 3.66146011 87.3915994 6.3125 89.875 C12.02567513 95.12560271 18.05929547 99.87269623 24.19726562 104.60888672 C32.98052842 111.3866537 41.63194068 118.27893342 50.0625 125.4921875 C52.03936664 127.17988481 54.047051 128.83206715 56.08203125 130.44921875 C59.08269646 133.07229021 61.32529282 135.7342976 63.6875 138.9375 C64.80705078 140.43603516 64.80705078 140.43603516 65.94921875 141.96484375 C71.63877995 150.38539433 73.23625814 158.55468739 73.625 168.5 C73.66367187 169.32242188 73.70234375 170.14484375 73.7421875 170.9921875 C73.83531692 172.9944701 73.91868985 174.99720262 74 177 C66.15361844 177.25398039 58.308299 177.4288431 50.45874023 177.54931641 C47.78848544 177.59390849 45.12360548 177.66767721 42.45385742 177.75439453 C38.6130816 177.87600598 34.77594623 177.93247165 30.93359375 177.9765625 C29.74479111 178.02817535 28.55598846 178.07978821 27.3311615 178.13296509 C19.16758676 178.13846736 19.16758676 178.13846736 15.78152466 174.83685303 C13.93774414 172.16943359 13.93774414 172.16943359 12.46107483 169.51327515 C10.10406086 165.45884582 6.60268903 162.9143633 3 160 C1.76949041 158.91461476 0.5430055 157.82465192 -0.6796875 156.73046875 C-5.02064313 152.92389296 -9.53898132 149.42112271 -14.1875 146 C-14.96802734 145.40316406 -15.74855469 144.80632812 -16.55273438 144.19140625 C-17.31263672 143.63324219 -18.07253906 143.07507813 -18.85546875 142.5 C-19.87096802 141.74203125 -19.87096802 141.74203125 -20.90698242 140.96875 C-23.68620959 139.68238894 -25.1222476 140.08138312 -28 141 C-37.6876299 147.27853188 -49.98685878 156.29348554 -55.94726562 166.25415039 C-61.34927115 175.11242186 -61.34927115 175.11242186 -66.03488159 176.68136597 C-71.72157258 177.61595701 -77.40378099 177.18806401 -83.125 176.8125 C-84.86176151 176.74718506 -86.59876031 176.68788781 -88.3359375 176.63476562 C-92.56322039 176.49250353 -96.7789611 176.26894721 -101 176 C-97.69485189 169.2450669 -93.77944538 164.19717444 -88.375 159 C-87.66424316 158.30430908 -86.95348633 157.60861816 -86.22119141 156.8918457 C-80.73843351 151.5808503 -75.04208408 146.66616394 -69 142 C-67.90096268 141.12412598 -66.80338436 140.24641908 -65.70703125 139.3671875 C-57.67386698 132.95009628 -49.41963365 126.89886188 -41 121 C-41.56847656 120.3709375 -42.13695312 119.741875 -42.72265625 119.09375 C-46.96142426 114.39501551 -51.19871338 109.69730121 -55.32421875 104.8984375 C-56.41544505 103.66222309 -57.54238837 102.45637047 -58.70703125 101.2890625 C-69.39487657 90.23932625 -76.8781041 72.28292528 -76.65771484 56.99658203 C-76.15320121 48.56859135 -73.2408214 41.92011396 -67.06298828 36.20947266 C-62.658793 32.48663287 -58.04966119 29.07636185 -53.34814453 25.7409668 C-50.88002472 23.91104765 -48.586144 21.93679723 -46.25390625 19.9375 C-40.59809194 15.37904167 -34.49393484 12.88272269 -27.75 10.3125 C-25.96952271 9.61096802 -25.96952271 9.61096802 -24.15307617 8.89526367 C-16.16320048 5.76664842 -8.13825924 2.72278174 0 0 Z " fill="#010101" transform="translate(480,542)"/>
<path d="M0 0 C0.33 16.83 0.66 33.66 1 51 C5.29 47.7 9.58 44.4 14 41 C16.60016677 39.05651416 19.20280501 37.11794957 21.8125 35.1875 C27.46839064 30.98673212 32.94648022 26.61462283 38.375 22.125 C43.99239478 17.51968804 49.48208208 13.27812931 56 10 C57.1653125 9.39414062 58.330625 8.78828125 59.53125 8.1640625 C69.52835212 3.23067179 78.91395627 1.53571612 90 1 C91.52560547 0.92072266 91.52560547 0.92072266 93.08203125 0.83984375 C106.11738111 1.55530472 119.84282579 9.23537074 128.61450195 18.54199219 C134.35564186 25.0662348 137.20799877 31.43935412 139 40 C139.16495468 40.60338196 139.32990936 41.20676392 139.49986267 41.82843018 C141.25553593 48.58555667 141.22922408 55.11556427 141.125 62.0625 C141.11597656 63.21427734 141.10695313 64.36605469 141.09765625 65.55273438 C141.07428714 68.36871193 141.04152565 71.18424158 141 74 C134.06369817 74.33140944 127.1294527 74.55796646 120.18701172 74.71411133 C117.8294652 74.77923067 115.47243864 74.86776199 113.11669922 74.98071289 C94.07660048 75.87032427 94.07660048 75.87032427 89.00765991 72.78881836 C85.36501758 69.42375933 83.25362118 65.36420164 81 61 C75.60287667 54.07558213 69.61020146 47.87796127 60.72265625 46.25390625 C47.07002012 44.98070489 36.50246436 47.16883191 25 55 C20.93792754 58.79982328 16.78566508 62.96158751 13.95100403 67.78492737 C11.74302409 71.11910274 10.09151002 72.76829307 6.10481262 73.61459351 C2.40782335 73.8112424 -1.22880622 73.78618392 -4.9296875 73.68359375 C-6.28872112 73.67052328 -7.64778794 73.66056594 -9.00686646 73.65357971 C-12.56860863 73.62696545 -16.1283239 73.55830925 -19.68927002 73.48065186 C-23.32902108 73.40879393 -26.96911239 73.37663597 -30.609375 73.34179688 C-37.74136811 73.27063959 -44.86781005 73.13364901 -52 73 C-52 60.46 -52 47.92 -52 35 C-64.87 35 -77.74 35 -91 35 C-89.02 32.69 -87.04 30.38 -85 28 C-83.24082733 25.47775065 -83.24082733 25.47775065 -81.50669861 22.93830872 C-60.80310464 -6.86005136 -33.27883946 -2.85247195 0 0 Z " fill="#010101" transform="translate(202,645)"/>
<path d="M0 0 C-0.95079861 9.78763274 -2.03433805 19.52509744 -3.5 29.25 C-4.60084595 36.67225542 -5.47058034 44.08740408 -6.125 51.5625 C-6.23811523 52.83432129 -6.23811523 52.83432129 -6.35351562 54.13183594 C-7.69157954 70.31517649 -8.20822025 86.51587516 -8.1875 102.75 C-8.18689575 103.64429718 -8.1862915 104.53859436 -8.18566895 105.45999146 C-8.10442228 150.53355906 -3.9725946 195.35276322 2 240 C2.17007568 241.30815674 2.34015137 242.61631348 2.51538086 243.96411133 C2.68862422 245.28987828 2.86188231 246.6156433 3.03515625 247.94140625 C3.18863525 249.12162354 3.34211426 250.30184082 3.50024414 251.51782227 C4.20289543 256.41372617 5.12404956 261.26352245 6.0703125 266.1171875 C7.32994315 272.67240825 8.50629178 279.24278395 9.6875 285.8125 C9.9141333 287.05990967 10.1407666 288.30731934 10.37426758 289.5925293 C10.58462646 290.76468994 10.79498535 291.93685059 11.01171875 293.14453125 C11.20209717 294.20003174 11.39247559 295.25553223 11.58862305 296.34301758 C12 299 12 299 12 302 C3.42 302 -5.16 302 -14 302 C-15.49015034 298.27462416 -16.58258499 295.00712663 -17.515625 291.15234375 C-17.79374023 290.00660889 -18.07185547 288.86087402 -18.35839844 287.68041992 C-18.65262695 286.44525635 -18.94685547 285.21009277 -19.25 283.9375 C-19.40472778 283.28987701 -19.55945557 282.64225403 -19.71887207 281.9750061 C-23.04556174 268.0309367 -26.13574471 254.04623994 -29 240 C-29.19805237 239.03118896 -29.39610474 238.06237793 -29.60015869 237.06420898 C-41.2819309 179.84352858 -41.2819309 179.84352858 -44.54443359 152.73266602 C-44.84935097 150.23433706 -45.18591829 147.73967748 -45.55322266 145.24975586 C-47.67272262 130.13921973 -47.31124152 114.86357297 -47.25754547 99.64011383 C-47.24993894 97.29366343 -47.24585087 94.94722925 -47.24261475 92.60076904 C-47.21300708 74.43079399 -47.09931843 56.27344582 -46.125 38.125 C-46.06632751 37.01192978 -46.06632751 37.01192978 -46.00646973 35.87637329 C-45.5859338 28.24135559 -44.90856966 20.64567756 -43.9921875 13.0546875 C-43.909617 12.36174591 -43.82704651 11.66880432 -43.74197388 10.9548645 C-43.12332818 6.12332818 -43.12332818 6.12332818 -42 5 C-40.41484315 4.72597371 -38.81979044 4.50869517 -37.22265625 4.31640625 C-36.23330078 4.19330078 -35.24394531 4.07019531 -34.22460938 3.94335938 C-33.18111328 3.81767578 -32.13761719 3.69199219 -31.0625 3.5625 C-25.25999933 2.86175072 -19.52076191 2.15709716 -13.80859375 0.90234375 C-9.1238953 -0.09348115 -4.78091487 -0.15422306 0 0 Z " fill="#010101" transform="translate(937,235)"/>
<path d="M0 0 C1.46606221 0.08839437 2.92752632 0.2548976 4.3828125 0.453125 C5.29635498 0.57631104 6.20989746 0.69949707 7.15112305 0.82641602 C8.13250244 0.96619873 9.11388184 1.10598145 10.125 1.25 C11.11733643 1.38913818 12.10967285 1.52827637 13.13208008 1.67163086 C35.27938371 4.85292247 35.27938371 4.85292247 40 8 C39.40036371 15.55375154 37.77003857 22.76499061 36.01965332 30.11999512 C28.43685598 62.11309427 21.27325949 94.24617775 18 127 C17.86932129 128.28310059 17.73864258 129.56620117 17.60400391 130.88818359 C15.74388071 149.4505976 14.51965987 168.06924965 13.375 186.6875 C13.30914703 187.75646515 13.24329407 188.8254303 13.17544556 189.92678833 C12.4375644 202.17000056 11.91025636 214.39088165 11.765625 226.65625 C11.75121368 227.7587056 11.73680237 228.86116119 11.72195435 229.99702454 C11.65808304 235.27242772 11.62536287 240.54528426 11.64208984 245.82104492 C11.62919146 247.71794045 11.61571401 249.61483216 11.6015625 251.51171875 C11.61503723 252.35839111 11.62851196 253.20506348 11.64239502 254.07739258 C11.56304757 260.35043408 9.60036602 263.9690954 6 269 C2.96523594 275.22586444 3.05338649 282.04916399 4.65234375 288.72265625 C6.32085218 293.35581056 8.07370235 296.17879397 11.75 299.4375 C16.27500763 304.19757296 15.9400372 309.91972838 15.82885742 316.14697266 C15.35795927 323.81803115 15.35795927 323.81803115 12.0625 326.8125 C11.42957031 327.26753906 10.79664063 327.72257812 10.14453125 328.19140625 C6.59189205 331.18753002 4.51308495 335.18271582 2.10961914 339.11645508 C0.2843121 342.07662162 -1.48249824 344.60774709 -4 347 C-4.43386971 342.91131645 -4.86080343 338.82196953 -5.28173828 334.73193359 C-5.42541123 333.34502354 -5.57087184 331.95829732 -5.71826172 330.57177734 C-6.19800837 326.05171538 -6.62335769 321.53010205 -7 317 C-7.08894531 316.00081543 -7.17789063 315.00163086 -7.26953125 313.97216797 C-7.49939307 309.55307451 -7.5196215 307.69963324 -4.8125 304.0546875 C-3.4203125 302.97574219 -3.4203125 302.97574219 -2 301.875 C-1.071875 301.12992188 -0.14375 300.38484375 0.8125 299.6171875 C1.534375 299.08351563 2.25625 298.54984375 3 298 C-1.03139714 298.55332902 -5.01464564 299.18090299 -9 300 C-10.25179741 291.45049 -11.2128388 282.92211107 -11.9375 274.3125 C-12.9131087 262.87768979 -14.42949027 251.5241185 -16.50927734 240.23583984 C-17.07452681 236.508568 -17.33578702 232.79938417 -17.53515625 229.0390625 C-17.57831467 228.24564453 -17.62147308 227.45222656 -17.66593933 226.63476562 C-21.64635436 150.68701319 -19.9991672 75.02862757 -1 1 C-0.67 0.67 -0.34 0.34 0 0 Z " fill="#020202" transform="translate(971,235)"/>
<path d="M0 0 C2.12069807 -0.01718242 4.23982442 -0.06104691 6.36010742 -0.10522461 C7.70970532 -0.11535418 9.05931649 -0.12386946 10.40893555 -0.13061523 C11.63845947 -0.14519775 12.8679834 -0.15978027 14.13476562 -0.17480469 C17.9118818 0.38129081 19.0738088 1.2685582 21.3269043 4.29516602 C23.57602527 16.92212079 20.77178478 33.88866802 14.37768555 44.88500977 C13.05996703 47.90743476 12.99236733 50.37916228 12.8894043 53.67016602 C12.6506552 60.93609686 10.75896506 67.24643277 8.40917969 74.10327148 C6.6277602 79.48156982 5.44338094 84.61041928 6.3269043 90.29516602 C8.08082772 93.60538989 8.08082772 93.60538989 11.7019043 94.35766602 C18.02717967 94.88668905 23.25080537 91.76647383 28.3269043 88.29516602 C33.32658703 83.59383687 36.716284 77.69666281 40.34033203 71.92822266 C46.90949156 61.51194347 52.80056222 54.35920654 64.4284668 49.50610352 C71.84963728 46.4056145 79.0059822 42.72777877 85.70581055 38.27563477 C89.95821751 35.70369706 94.53769857 35.58172976 99.3269043 36.29516602 C107.72056122 39.22022828 113.97687204 44.29072621 120.56518555 50.01782227 C127.1186273 55.42186264 133.79645735 57.67686679 142.29174805 57.50219727 C147.95254187 56.92633916 151.61874102 54.1481142 155.8894043 50.67016602 C161.75512587 46.00335037 161.75512587 46.00335037 166.3269043 46.29516602 C170.36036245 47.75169257 173.6310585 49.70115131 176.8894043 52.48266602 C180.21497277 54.95552462 182.17359846 55.36438778 186.3269043 55.29516602 C189.57564672 54.00920547 192.40436059 52.19574428 195.3269043 50.29516602 C197.24341491 49.06575605 199.16008494 47.83659456 201.0769043 46.60766602 C202.39948242 45.73561523 202.39948242 45.73561523 203.7487793 44.84594727 C209.49049158 41.39222033 214.67556328 40.23575702 221.3269043 41.29516602 C224.7853566 43.69490843 225.97733001 45.41203098 227.5144043 49.29516602 C227.3269043 52.29516602 227.3269043 52.29516602 224.83081055 55.03344727 C221.94748977 57.30407823 221.38970206 57.29749886 217.4362793 57.15063477 C216.73567383 57.04058105 216.03506836 56.93052734 215.31323242 56.81713867 C210.07186865 56.03322291 205.49848962 55.93857928 200.89526367 58.81420898 C195.02234258 63.65924923 190.10471631 69.39265902 185.3269043 75.29516602 C184.8009668 75.93953613 184.2750293 76.58390625 183.7331543 77.24780273 C177.94160191 84.50534182 173.27273263 92.4846925 168.8112793 100.61181641 C166.502329 104.72390528 164.43679872 107.74664436 160.3269043 110.29516602 C157.23099778 111.06384143 154.44152781 110.97225808 151.3269043 110.29516602 C148.3269043 107.85766602 148.3269043 107.85766602 146.3269043 105.29516602 C145.9969043 104.96516602 145.6669043 104.63516602 145.3269043 104.29516602 C144.77397673 98.53195947 145.15159281 93.27225729 146.8269043 87.73266602 C148.35360067 82.61676517 149.44893527 77.60951271 148.3269043 72.29516602 C146.09485981 70.10438475 146.09485981 70.10438475 143.3269043 69.29516602 C142.6669043 68.96516602 142.0069043 68.63516602 141.3269043 68.29516602 C138.82934092 67.98210944 138.82934092 67.98210944 136.0144043 67.92016602 C134.59708008 67.84668945 134.59708008 67.84668945 133.15112305 67.77172852 C129.07570965 68.52706101 127.85003561 70.02213853 125.3269043 73.29516602 C123.85146737 76.46896584 122.72745679 79.74233924 121.5769043 83.04516602 C116.96064695 95.28417753 111.22456851 101.44139889 99.3190918 107.10375977 C91.91020639 110.05377289 85.53249843 110.61683232 77.6394043 110.54516602 C76.57028809 110.53767334 75.50117188 110.53018066 74.3996582 110.52246094 C55.34476224 110.26237047 55.34476224 110.26237047 49.8269043 105.98266602 C47.52247372 103.50540315 45.40307066 100.96452276 43.3269043 98.29516602 C40.09930039 96.68136406 37.92111261 96.89580954 34.3269043 97.29516602 C28.60072688 100.16851669 23.81221434 104.44091516 19.15112305 108.77954102 C14.89144121 112.31863428 11.3325974 112.7308641 5.91674805 112.61157227 C1.80686167 112.10945945 -1.2206295 110.50130624 -4.6730957 108.29516602 C-5.31504883 107.89813477 -5.95700195 107.50110352 -6.6184082 107.09204102 C-10.40219888 104.59062291 -12.63433921 102.4566278 -14.6730957 98.29516602 C-15.68272702 91.68253569 -14.89984393 85.38588172 -12.91137695 79.04125977 C-10.53278079 71.02973227 -8.69005655 62.94516147 -6.95336914 54.77270508 C-6.42310826 52.29522467 -5.87249084 49.82280189 -5.3215332 47.34985352 C-1.30404017 32.06111975 -1.30404017 32.06111975 -3.82885742 17.2956543 C-5.37122416 15.72925847 -6.89549788 14.55629957 -8.7355957 13.35766602 C-11.02462965 11.76982338 -12.69709313 10.32614238 -14.6730957 8.29516602 C-14.48817792 -2.15812764 -8.48584663 0.04796476 0 0 Z " fill="#030303" transform="translate(324.673095703125,328.704833984375)"/>
<path d="M0 0 C2.77527623 1.31726874 5.24143857 2.7841666 7.73046875 4.58203125 C8.44348145 5.09612549 9.15649414 5.61021973 9.89111328 6.13989258 C10.6489209 6.69185303 11.40672852 7.24381348 12.1875 7.8125 C12.97108887 8.38057373 13.75467773 8.94864746 14.56201172 9.53393555 C22.81713035 15.54658694 30.92202283 21.7523493 39 28 C37.66500529 31.61665134 36.04496529 34.7005577 33.9453125 37.9296875 C33.33671387 38.8769873 32.72811523 39.82428711 32.10107422 40.80029297 C31.44896973 41.81494629 30.79686523 42.82959961 30.125 43.875 C11.71435607 73.10404288 0.41152398 104.00969646 -10.9375 136.4375 C-11.24869781 137.32667114 -11.55989563 138.21584229 -11.88052368 139.13195801 C-17.78604904 156.05259839 -23.28867286 173.08962324 -28.25 190.3125 C-28.54165543 191.32461548 -28.54165543 191.32461548 -28.83920288 192.35717773 C-35.94467268 217.15194747 -42.102221 242.22136831 -48.47384262 267.21210289 C-51.26395972 278.15523605 -54.094454 289.08688079 -57 300 C-60.05082209 298.41234895 -63.02907716 296.7333915 -66 295 C-67.01707031 294.44183594 -68.03414062 293.88367188 -69.08203125 293.30859375 C-70.08621094 292.69113281 -71.09039063 292.07367187 -72.125 291.4375 C-73.07632812 290.87933594 -74.02765625 290.32117188 -75.0078125 289.74609375 C-78.3414959 285.15083997 -76.77192926 280.39268335 -76 275 C-75.79908439 272.98126874 -75.60632531 270.96170847 -75.421875 268.94140625 C-72.68775341 242.38967834 -67.74084451 216.43764733 -61.58843994 190.48272705 C-60.94331179 187.76082291 -60.30054421 185.03836588 -59.65771484 182.31591797 C-53.85913884 157.79079527 -47.95871609 133.29411749 -41.5508728 108.92024231 C-40.51311043 104.97233098 -39.49171129 101.0207026 -38.4841156 97.06498718 C-29.78366903 62.94991746 -18.00837465 30.36626605 0 0 Z " fill="#020202" transform="translate(1115,279)"/>
<path d="M0 0 C10.56 0 21.12 0 32 0 C30.53939556 7.30302219 29.46621219 12.02585635 25.875 18.125 C25.47684082 18.81658203 25.07868164 19.50816406 24.66845703 20.22070312 C21.44044996 25.64467693 17.67916926 29.77899939 13 34 C11.93874823 35.17003008 10.89752428 36.35847766 9.875 37.5625 C4.66535658 43.60473484 -0.8131974 49.40015077 -6.296875 55.19287109 C-7.7832892 56.77005542 -9.25255678 58.36111084 -10.71875 59.95703125 C-22.07159267 71.92306758 -36.73463123 82.67087519 -52 89 C-53.2495808 89.64339129 -54.49162887 90.30157991 -55.7265625 90.97265625 C-64.08385817 95.48551076 -71.35932138 98.4582505 -81 99 C-81.93714844 99.05671875 -82.87429688 99.1134375 -83.83984375 99.171875 C-103.8350781 99.7204411 -123.27378471 96.6687997 -138.265625 82.68359375 C-139.16796875 81.79800781 -140.0703125 80.91242188 -141 80 C-141.85722656 79.24460937 -142.71445312 78.48921875 -143.59765625 77.7109375 C-146.73084692 74.17527193 -148.39502127 70.52658882 -150.1875 66.1875 C-150.53554688 65.34944824 -150.88359375 64.51139648 -151.2421875 63.64794922 C-154.35656479 55.76207148 -155.60591846 48.46379661 -156 40 C-156.08507812 38.37384766 -156.08507812 38.37384766 -156.171875 36.71484375 C-156.32548729 30.51658784 -155.84794443 24.40628557 -155.1875 18.25 C-155.11756836 17.56494385 -155.04763672 16.8798877 -154.97558594 16.17407227 C-154.30632863 10.6220363 -152.84706728 6.54120183 -151 1 C-135.16 1 -119.32 1 -103 1 C-102.34 6.61 -101.68 12.22 -101 18 C-99.88026501 21.23566615 -99.01471198 23.58304 -97.375 26.4375 C-97.02308594 27.09089355 -96.67117188 27.74428711 -96.30859375 28.41748047 C-89.45349336 40.76458967 -81.06902111 49.32875122 -67.6171875 54.06640625 C-57.06422612 56.79011874 -48.13632664 56.1735061 -38.66259766 50.76318359 C-25.16541761 42.40269756 -12.29245086 31.61070962 -4 18 C-3.401875 17.071875 -2.80375 16.14375 -2.1875 15.1875 C-0.34644187 10.68430061 -0.34644187 10.68430061 0 0 Z " fill="#020202" transform="translate(511,754)"/>
<path d="M0 0 C0.01213028 0.89605453 0.01213028 0.89605453 0.02450562 1.81021118 C0.48762262 42.44991501 0.48762262 42.44991501 3 83 C3.06307343 83.75000275 3.12614685 84.50000549 3.19113159 85.2727356 C4.29997169 98.43683218 5.96856297 111.41581136 8.1875 124.4375 C8.34128113 125.34873627 8.49506226 126.25997253 8.65350342 127.19882202 C11.17208549 142.04872105 14.17604967 156.68552898 17.83203125 171.30126953 C19.30266491 177.19241863 20.72575145 183.09509982 22.15625 188.99609375 C23.31102957 193.74775434 24.46765604 198.49896342 25.625 203.25 C25.90281311 204.39143463 26.18062622 205.53286926 26.46685791 206.70889282 C29.59872665 219.55306971 32.84611165 232.34214687 36.45513916 245.06060791 C37.30231443 248.07606599 38.10864696 251.10206816 38.9140625 254.12890625 C39.20023438 255.20333984 39.48640625 256.27777344 39.78125 257.38476562 C40.35298454 259.53803438 40.92325207 261.6916931 41.4921875 263.84570312 C42.95794279 269.33895421 44.50535789 274.73765461 46.46240234 280.07788086 C47 282 47 282 47 286 C45.27159593 286.17439753 43.54219325 286.33889015 41.8125 286.5 C40.84957031 286.5928125 39.88664063 286.685625 38.89453125 286.78125 C33.26306672 287.09756095 27.63877963 287.03806057 22 287 C14.14765275 264.8803889 6.48651143 242.70929623 -0.87239075 220.42056274 C-2.47198933 215.58003537 -4.09260028 210.74699553 -5.7265625 205.91796875 C-10.86581729 190.71266068 -15.75773321 175.48145813 -20 160 C-20.32742188 158.80793945 -20.65484375 157.61587891 -20.9921875 156.38769531 C-21.87759163 153.13483373 -22.75165572 149.87961463 -23.61297607 146.62033081 C-24.0942707 144.80349954 -24.58325201 142.9887095 -25.07275391 141.17407227 C-31.41366945 116.76237521 -34.21396563 92.308175 -36.12469482 67.23864746 C-36.37684142 63.98131007 -36.6443616 60.72531068 -36.91215229 57.46922779 C-37.17399428 54.27189849 -37.4289153 51.07404716 -37.68160057 47.87598228 C-37.80015255 46.37911186 -37.92010453 44.88235147 -38.04165077 43.38572121 C-38.85816816 33.23643952 -39.13948195 23.18132992 -39 13 C-37.90945313 12.57589844 -36.81890625 12.15179688 -35.6953125 11.71484375 C-34.97480713 11.43447266 -34.25430176 11.15410156 -33.51196289 10.86523438 C-31.90745723 10.24161552 -30.30246811 9.61923929 -28.69702148 8.99804688 C-24.42006493 7.34110648 -20.15333184 5.66398055 -15.90234375 3.94140625 C-14.68490479 3.45329468 -14.68490479 3.45329468 -13.44287109 2.95532227 C-11.87635007 2.32662516 -10.3127556 1.6905779 -8.75244141 1.04663086 C-3.33729722 -1.11243241 -3.33729722 -1.11243241 0 0 Z " fill="#020202" transform="translate(862,249)"/>
<path d="M0 0 C3.71563534 1.23854511 4.59458591 2.69017178 7 5.75 C7.78761719 6.73742187 8.57523438 7.72484375 9.38671875 8.7421875 C10.01779541 9.53447754 10.01779541 9.53447754 10.66162109 10.34277344 C13.43926729 13.78215001 16.32582032 17.1307273 19.19335938 20.49511719 C21.85146918 23.62103866 24.45337823 26.78258974 27 30 C25.68464787 33.49208531 24.14830669 36.63785964 22.2421875 39.84375 C21.70343994 40.75302246 21.16469238 41.66229492 20.60961914 42.59912109 C19.75098267 44.03505615 19.75098267 44.03505615 18.875 45.5 C18.28388428 46.49467285 17.69276855 47.4893457 17.08374023 48.51416016 C14.11780112 53.49407874 11.12366198 58.45313172 8.0625 63.375 C-1.44768636 78.76961417 -10.37014818 94.46920196 -18.875 110.4375 C-19.22335907 111.08892975 -19.57171814 111.7403595 -19.93063354 112.41152954 C-28.47361595 128.41651668 -35.89871959 144.82192217 -42.875 161.5625 C-43.58303899 163.25411086 -44.2913764 164.94559684 -45 166.63696289 C-46.70813059 170.7162968 -48.41207108 174.79736398 -50.11462402 178.87902832 C-51.30497865 181.73059478 -52.50000238 184.58019527 -53.6953125 187.4296875 C-59.14903714 200.45066744 -64.49440425 213.51579148 -69.84326172 226.58007812 C-76.46922794 242.75939707 -83.20404617 258.89139946 -90 275 C-90.66 275 -91.32 275 -92 275 C-92 274.34 -92 273.68 -92 273 C-92.54398438 272.78214844 -93.08796875 272.56429688 -93.6484375 272.33984375 C-96.7861911 270.55205391 -99.12531454 268.12568015 -101.625 265.5625 C-102.35976562 264.82676758 -102.35976562 264.82676758 -103.109375 264.07617188 C-105.3469118 261.81112438 -107.22778332 259.65832501 -109 257 C-108.65704186 250.01322495 -106.62508914 243.44040939 -104.6875 236.75 C-104.16397949 234.93689331 -104.16397949 234.93689331 -103.62988281 233.0871582 C-93.06041239 196.88060118 -79.70055286 161.86551199 -64.49023438 127.38037109 C-62.35253755 122.53132945 -60.23756083 117.67253232 -58.125 112.8125 C-57.73248047 111.91168701 -57.33996094 111.01087402 -56.93554688 110.08276367 C-54.4713377 104.41869493 -52.03247434 98.74424018 -49.609375 93.0625 C-43.31263056 78.2988805 -36.99152623 63.54507586 -30.53179932 48.85189819 C-29.85428566 47.30756383 -29.17982767 45.76188459 -28.50872803 44.2147522 C-22.83503981 31.14835324 -16.06256406 20.04499995 -7 9 C-5.66113914 7.29599526 -4.32748401 5.58788259 -3 3.875 C-2.4225 3.12992187 -1.845 2.38484375 -1.25 1.6171875 C-0.8375 1.08351563 -0.425 0.54984375 0 0 Z " fill="#020202" transform="translate(1179,329)"/>
<path d="M0 0 C2.09271696 0.00097042 4.18174033 -0.04060365 6.27392578 -0.08496094 C7.61115775 -0.09017002 8.94840241 -0.0928561 10.28564453 -0.09277344 C11.49720215 -0.09986328 12.70875977 -0.10695313 13.95703125 -0.11425781 C18.12298565 0.6686061 19.57407604 2.27878233 22.23095703 5.50097656 C23.30517578 7.48535156 23.30517578 7.48535156 23.91845703 9.25097656 C24.84801383 12.58529052 24.84801383 12.58529052 27.23095703 13.50097656 C28.85596591 13.52645833 30.48215731 13.49050988 32.10595703 13.42285156 C33.09208984 13.39707031 34.07822266 13.37128906 35.09423828 13.34472656 C37.15469501 13.2831438 39.21474664 13.2055126 41.27392578 13.11035156 C50.10743316 12.92751053 55.88054203 15.56917515 63.10595703 20.43847656 C68.70044048 25.86841638 70.40148411 30.8179279 70.60595703 38.43847656 C70.65666904 51.57922656 64.19836752 62.2168656 55.25439453 71.56738281 C47.88703169 78.36238081 40.3826853 82.3791254 30.36376953 82.89550781 C29.23068359 82.96447266 28.09759766 83.0334375 26.93017578 83.10449219 C24.5558055 83.24332149 22.18075634 83.37100839 19.80517578 83.48730469 C11.20728306 83.969182 11.20728306 83.969182 4.23095703 88.50097656 C-0.2214203 95.37842396 -0.69716512 104.62504279 -1.55493164 112.59472656 C-2.02573821 116.45974604 -2.32973377 118.8932655 -4.64404297 122.09472656 C-6.76904297 123.50097656 -6.76904297 123.50097656 -10.26904297 123.56347656 C-14.49232136 122.28140991 -15.45356963 121.20173309 -17.76904297 117.50097656 C-18.26513672 114.07519531 -18.26513672 114.07519531 -18.20654297 110.18847656 C-18.19623047 109.49278564 -18.18591797 108.79709473 -18.17529297 108.08032227 C-17.9990194 102.31189926 -17.02950398 96.81610496 -15.84814453 91.18066406 C-14.71187564 85.65614124 -13.97756969 80.12352049 -14.76904297 74.50097656 C-16.35609417 71.35763403 -16.35609417 71.35763403 -18.63208008 71.12011719 C-24.27846402 71.21421327 -28.99075351 72.24141183 -34.33154297 74.00097656 C-43.66253275 76.77094669 -53.9968286 79.49522828 -63.10498047 74.77050781 C-65.82378 72.81168768 -68.2936362 70.75463757 -70.76904297 68.50097656 C-74.24946395 66.18069591 -75.67465976 65.96738598 -79.76904297 66.50097656 C-81.76657476 68.27661944 -81.76657476 68.27661944 -83.20654297 70.81347656 C-84.07859375 72.17085937 -84.07859375 72.17085937 -84.96826172 73.55566406 C-85.85964844 75.01359375 -85.85964844 75.01359375 -86.76904297 76.50097656 C-88.01662252 78.48166987 -89.26656379 80.46087786 -90.51904297 82.43847656 C-91.07076172 83.334375 -91.62248047 84.23027344 -92.19091797 85.15332031 C-93.59318217 87.23936186 -94.81603198 88.92495429 -96.76904297 90.50097656 C-99.33154297 90.37597656 -99.33154297 90.37597656 -101.76904297 89.50097656 C-104.28278247 85.73036732 -104.60507012 82.85867561 -103.76904297 78.50097656 C-100.82580406 72.0803166 -96.36414639 66.38926244 -92.18701172 60.72753906 C-89.40528163 56.35953314 -89.14808905 51.57918874 -89.76904297 46.50097656 C-91.12698291 41.79392051 -92.97178445 37.29415473 -94.96044922 32.82128906 C-97.19827124 27.69067272 -98.66366961 24.07340787 -96.76904297 18.50097656 C-94.025724 15.35422833 -92.39411911 14.60143523 -88.26904297 13.93847656 C-83.77188271 14.66123446 -82.73806313 16.09868925 -79.76904297 19.50097656 C-78.23351172 21.82575879 -76.89728459 24.23396442 -75.58154297 26.68847656 C-73.10190945 31.39322476 -73.10190945 31.39322476 -69.76904297 35.50097656 C-66.03295823 35.41795246 -64.16530576 34.81025484 -61.20654297 32.50097656 C-58.64588805 29.34940127 -56.86081917 26.15762475 -54.94873047 22.59472656 C-53.49774844 20.01947369 -52.20826558 18.20104081 -49.76904297 16.50097656 C-45.66126548 15.9979834 -44.26028314 16.17348312 -40.76904297 18.50097656 C-40.16010256 21.88397885 -40.15675887 24.31962843 -41.76513672 27.42285156 C-45.32242316 32.46150092 -49.79702104 36.37394739 -54.49951172 40.32519531 C-57.94558765 43.62892043 -59.61253365 46.24890199 -60.20654297 51.00097656 C-59.68141709 55.2019836 -58.86550713 56.64270195 -55.76904297 59.50097656 C-47.01873352 63.95567956 -38.84503194 64.63925104 -29.47729492 61.73193359 C-24.33894076 59.39644439 -20.78851243 55.36159257 -16.95654297 51.31347656 C-15.72774414 50.07500977 -15.72774414 50.07500977 -14.47412109 48.81152344 C-5.88562156 39.98657938 -0.59168793 32.13920584 -0.50341797 19.51660156 C-0.65960011 17.18713601 -0.65960011 17.18713601 -2.76904297 14.50097656 C-5.08160456 13.5955259 -5.08160456 13.5955259 -7.70654297 13.00097656 C-11.25626251 12.12269544 -13.4912821 11.44953432 -15.76904297 8.50097656 C-16.18433108 5.73238916 -16.25567288 4.21684891 -14.66308594 1.87402344 C-10.6660514 -1.02354323 -4.80000765 -0.01573405 0 0 Z " fill="#030303" transform="translate(225.76904296875,354.4990234375)"/>
<path d="M0 0 C8.59025405 2.65865963 16.79429438 6.18146372 25.0625 9.6875 C26.51484404 10.30043814 27.96731702 10.91307086 29.41992188 11.52539062 C32.94811109 13.01340977 36.47452935 14.50555201 40 16 C38.55979267 20.34661128 37.11691823 24.69232819 35.67230225 29.03747559 C35.13830072 30.64491708 34.60498165 32.25258544 34.07232666 33.86047363 C30.94213367 43.30781233 27.76318083 52.73279645 24.4375 62.11328125 C16.82243649 83.66137473 10.40754665 105.18507715 5.28466797 127.45849609 C4.39851377 131.30596482 3.48612388 135.14603496 2.55517578 138.98291016 C-4.80798518 169.35539016 -10.2214589 199.66839853 -14.23461914 230.63476562 C-14.32239026 231.30704885 -14.41016138 231.97933208 -14.50059223 232.67198753 C-14.91351388 235.83610116 -15.31837975 239.00073902 -15.70753479 242.1678772 C-15.84932663 243.27666229 -15.99111847 244.38544739 -16.13720703 245.52783203 C-16.25645538 246.49302765 -16.37570374 247.45822327 -16.49856567 248.45266724 C-16.990802 250.95327332 -17.74280132 252.79676956 -19 255 C-19.32806641 254.24968506 -19.65613281 253.49937012 -19.99414062 252.72631836 C-22.38625686 249.47500848 -24.24984919 248.82712863 -27.87902832 247.33201599 C-36.864707 243.46501186 -36.864707 243.46501186 -38.89990234 239.04608154 C-40.20697865 233.40701268 -39.79625471 227.67352986 -39.5 221.9375 C-39.46788323 220.23514923 -39.44309271 218.53264382 -39.42578125 216.83007812 C-39.380745 213.46509943 -39.28832865 210.10676394 -39.15527344 206.74414062 C-38.99642851 202.53612119 -39.03300346 198.36245954 -39.109375 194.15234375 C-39.14018803 183.90508702 -37.91229109 173.79432167 -36.75 163.625 C-36.63640137 162.60876556 -36.52280273 161.59253113 -36.40576172 160.54550171 C-34.77454965 145.95478583 -33.02258861 131.40479463 -30.50927734 116.93554688 C-30.15963022 114.92013123 -29.81930107 112.90308356 -29.48681641 110.88476562 C-24.84981666 82.76360586 -17.28429038 55.24503172 -9 28 C-8.6498584 26.84419434 -8.2997168 25.68838867 -7.93896484 24.49755859 C-6.17181445 18.67439943 -4.39570809 12.85396432 -2.6015625 7.0390625 C-2.31619629 6.11303223 -2.03083008 5.18700195 -1.73681641 4.23291016 C-1 2 -1 2 0 0 Z " fill="#010101" transform="translate(1044,248)"/>
<path d="M0 0 C0.07404053 0.55196045 0.14808105 1.1039209 0.22436523 1.67260742 C8.17437943 59.54104528 23.27381386 114.74757205 44.28186035 169.13983154 C44.98500531 170.96115985 45.68540395 172.78354764 46.38574219 174.60595703 C51.59503332 188.13548746 57.01625022 201.5694594 62.625 214.9375 C62.89837189 215.58942322 63.17174377 216.24134644 63.45339966 216.9130249 C66.20244757 223.46046154 68.98232344 229.9918421 71.859375 236.484375 C72.28782715 237.45769775 72.7162793 238.43102051 73.15771484 239.43383789 C73.94452035 241.21369736 74.74107695 242.98929223 75.54931641 244.75952148 C75.89140137 245.53368408 76.23348633 246.30784668 76.5859375 247.10546875 C76.8854834 247.76699951 77.1850293 248.42853027 77.49365234 249.11010742 C78.10813305 251.40359591 77.74506203 252.77563432 77 255 C58.84424119 258.14288251 58.84424119 258.14288251 52.9765625 256.3984375 C50.061448 254.33596519 48.90994361 251.52652557 47.4375 248.375 C47.09799316 247.67044678 46.75848633 246.96589355 46.40869141 246.23999023 C45.25732267 243.83354207 44.12782383 241.41756528 43 239 C42.59894043 238.15099121 42.19788086 237.30198242 41.78466797 236.42724609 C33.70057189 219.2889624 26.33027381 201.85360167 19.0012207 184.38391113 C17.96700393 181.9214362 16.93017294 179.46007679 15.89257812 176.99902344 C-40.96270822 42.13830659 -40.96270822 42.13830659 -36 24 C-31.11147937 18.27856005 -24.17381847 14.29293776 -17.875 10.3125 C-16.14309039 9.204644 -14.41131617 8.09657631 -12.6796875 6.98828125 C-11.87241211 6.47604004 -11.06513672 5.96379883 -10.23339844 5.43603516 C-8.29899672 4.19224953 -6.40058877 2.91112855 -4.5078125 1.60546875 C-2 0 -2 0 0 0 Z " fill="#020202" transform="translate(792,280)"/>
<path d="M0 0 C0.66 0 1.32 0 2 0 C4.17236946 4.31465703 6.3262483 8.63787114 8.46362305 12.9699707 C9.19300341 14.44185736 9.92734298 15.91129749 10.66674805 17.37817383 C11.72983559 19.48933557 12.77467237 21.60870529 13.81640625 23.73046875 C14.14967422 24.38274948 14.4829422 25.03503021 14.8263092 25.70707703 C16.20730956 28.55869055 17.02832928 30.58377192 16.81103516 33.77636719 C15.66336606 36.92295664 13.8121087 39.41566181 11.8125 42.0625 C10.90115735 43.30381735 9.99107556 44.54606104 9.08203125 45.7890625 C8.58783691 46.46098633 8.09364258 47.13291016 7.58447266 47.82519531 C4.67015974 51.82530309 1.83657016 55.88206703 -1 59.9375 C-1.60005859 60.79520996 -2.20011719 61.65291992 -2.81835938 62.53662109 C-7.57403871 69.35318105 -12.24083869 76.22152364 -16.79785156 83.17236328 C-18.01013063 85.01540169 -19.23505393 86.84958333 -20.4609375 88.68359375 C-35.01165046 110.62334063 -47.67080026 133.78815938 -60.28710938 156.87402344 C-62.56566437 161.03232135 -64.87472657 165.17317475 -67.1875 169.3125 C-71.59047205 177.20962909 -75.88750422 185.16315284 -80.18432617 193.1184082 C-83.79959 199.80481127 -87.45898843 206.46391383 -91.17382812 213.09545898 C-93.6396994 217.51047119 -96.0528301 221.95069251 -98.4375 226.41015625 C-99.32308594 228.06241211 -99.32308594 228.06241211 -100.2265625 229.74804688 C-101.39284587 231.92776371 -102.5544444 234.10999485 -103.7109375 236.29492188 C-104.23945312 237.28169922 -104.76796875 238.26847656 -105.3125 239.28515625 C-105.78300781 240.17082275 -106.25351563 241.05648926 -106.73828125 241.96899414 C-108 244 -108 244 -110 245 C-112.18331537 242.15677 -114.2531567 239.24645064 -116.3125 236.3125 C-116.92673828 235.51521484 -117.54097656 234.71792969 -118.17382812 233.89648438 C-120.73952171 230.14434289 -122.27418073 227.60910471 -121.49023438 223.00830078 C-120.19110373 219.54768552 -118.65331497 216.3059402 -117 213 C-116.43823172 211.76209575 -115.88375015 210.52086181 -115.33618164 209.27661133 C-113.86975647 205.95023857 -112.36276716 202.64451299 -110.84033203 199.34344482 C-109.17419481 195.73021515 -107.52092692 192.11110435 -105.8671875 188.4921875 C-105.53692566 187.77008087 -105.20666382 187.04797424 -104.86639404 186.3039856 C-101.4172831 178.74923311 -98.07396938 171.14947596 -94.76513672 163.53222656 C-86.32734131 144.17634185 -76.87947209 125.2839602 -67.58717346 106.32931519 C-65.25534865 101.57167781 -62.93758508 96.80783536 -60.63671875 92.03515625 C-55.17790369 80.78401106 -49.11587676 70.28336606 -42 60 C-41.19755859 58.83718506 -41.19755859 58.83718506 -40.37890625 57.65087891 C-36.88248428 52.59903366 -33.34874086 47.57424889 -29.80273438 42.55712891 C-28.01147403 40.0162756 -26.23045384 37.46858293 -24.453125 34.91796875 C-18.05296476 25.73501459 -11.59347318 16.60201712 -4.99780273 7.55810547 C-4.23125366 6.50453857 -4.23125366 6.50453857 -3.44921875 5.4296875 C-2.99893311 4.81335449 -2.54864746 4.19702148 -2.0847168 3.56201172 C-0.92917273 1.97738205 -0.92917273 1.97738205 0 0 Z " fill="#020202" transform="translate(1223,390)"/>
<path d="M0 0 C5.9140475 3.88829842 11.71616409 7.89647871 17.4375 12.0625 C19.02205465 13.21235089 20.60669239 14.36208729 22.19140625 15.51171875 C22.99078613 16.09228027 23.79016602 16.6728418 24.61376953 17.27099609 C26.89308382 18.92253116 29.17767269 20.56639959 31.46484375 22.20703125 C40.20946377 28.48447456 48.86612064 34.86681883 57.46606445 41.34106445 C63.1421735 45.61282063 68.84053256 49.85237451 74.5625 54.0625 C75.34375244 54.63750244 76.12500488 55.21250488 76.92993164 55.80493164 C80.8423092 58.68252394 84.75798699 61.55556933 88.67578125 64.42578125 C100.55979797 73.14254 112.30321922 82.03386967 124 91 C125.24085789 91.94925474 126.48174017 92.89847758 127.72265625 93.84765625 C130.822711 96.22198094 133.91321586 98.60843751 137 101 C137.55703613 101.43086914 138.11407227 101.86173828 138.68798828 102.30566406 C146.24787193 108.16241603 153.64465916 114.16948606 160.9140625 120.3828125 C163.75605565 122.80691756 166.65290065 125.15731399 169.5625 127.5 C174.55168418 131.55825768 179.27670615 135.84515566 183.98046875 140.2265625 C186.10511477 142.20225332 188.28361643 144.09548033 190.4921875 145.9765625 C196.27119901 151.01530722 201.65336479 156.46734898 207.07202148 161.88671875 C208.92477468 163.73728967 210.78538706 165.57970076 212.64648438 167.421875 C219.56730179 174.31040262 225.94090087 181.33387697 232 189 C232.94589862 190.11406846 233.89900898 191.22210864 234.86328125 192.3203125 C242.24148417 200.76935508 248.71482567 209.71639389 255 219 C255.43602539 219.63067383 255.87205078 220.26134766 256.32128906 220.91113281 C257.50751484 222.6352874 258.66452804 224.37521636 259.8125 226.125 C260.45832031 227.09695313 261.10414063 228.06890625 261.76953125 229.0703125 C263.3240884 232.77163905 262.86195802 235.13804282 262 239 C257.88630389 235.05389892 254.30963932 230.82241508 250.75 226.375 C249.11364601 224.34268875 247.47635402 222.31116704 245.83642578 220.28173828 C244.54061801 218.67171176 243.253315 217.05482229 241.97216797 215.43310547 C236.70838595 208.85072898 231.07643687 202.76412769 225.09863281 196.83789062 C223.62587477 195.37586839 222.16414955 193.90342512 220.703125 192.4296875 C211.80156268 183.51359293 202.16058294 175.68592031 192 168.25 C191.18950195 167.65493652 190.37900391 167.05987305 189.54394531 166.44677734 C182.47866753 161.29040717 175.28271151 156.34052226 168.04296875 151.43359375 C161.40596749 146.93081273 154.83760884 142.32928504 148.26660156 137.73095703 C142.56235031 133.74899401 136.8072105 129.85456747 131.01147461 126.00708008 C126.064618 122.71011144 121.16000197 119.35149122 116.25 116 C107.80262469 110.24339218 99.32654893 104.53274971 90.8125 98.875 C83.57442041 94.06335839 76.36013684 89.22116577 69.1875 84.3125 C58.78333089 77.19611618 48.34313412 70.1333852 37.89590454 63.08041382 C35.98892384 61.79275521 34.08231814 60.50454103 32.17611694 59.21572876 C30.34346373 57.97679654 28.50975627 56.73942218 26.67494202 55.50369263 C24.90398412 54.30644609 23.1383577 53.10127185 21.37840271 51.88790894 C17.54515652 49.26515309 13.79769685 46.81350135 9.60498047 44.80395508 C5.84421047 42.94641236 2.83669675 41.17837171 0 38 C-2.12202929 31.71385026 -1.31982171 24.94016999 -0.875 18.4375 C-0.80468495 16.64803051 -0.74082199 14.85829518 -0.68359375 13.06835938 C-0.53013147 8.70562031 -0.28926066 4.35575692 0 0 Z " fill="#030303" transform="translate(651,537)"/>
<path d="M0 0 C0.46148438 1.0837793 0.92296875 2.16755859 1.3984375 3.28417969 C15.92267189 37.3729616 30.69004483 71.32274455 46.51025391 104.83251953 C47.83636075 107.65207217 49.14700323 110.47795114 50.44921875 113.30859375 C55.62893112 124.5166655 61.42989109 135.3181862 67.41308594 146.11572266 C69.01613941 149.02933401 70.5940606 151.95517793 72.1640625 154.88671875 C78.37894829 166.48455411 84.78097861 177.93711912 91.50732422 189.24755859 C92.06564941 190.19066895 92.62397461 191.1337793 93.19921875 192.10546875 C93.69252686 192.93199951 94.18583496 193.75853027 94.6940918 194.61010742 C96.00975023 197.01784353 97.03517676 199.43389569 98 202 C93.89217762 202.27849643 89.78891022 202.52681187 85.67578125 202.7109375 C82.7219996 202.85467089 80.04052212 203.16360205 77.10546875 203.6640625 C73.22834645 204.16847312 70.7140457 204.256632 67 203 C63.22546885 198.75217341 60.9822647 193.94435923 58.48632812 188.87158203 C55.9227159 183.91868994 52.95787903 179.20504274 50.03033447 174.46191406 C48.17564414 171.45048947 46.34366811 168.42527213 44.5078125 165.40234375 C41.90951887 161.132216 39.30747628 156.86438257 36.7038269 152.59751892 C22.69530277 129.63612094 9.09856816 106.53554161 -3.52099609 82.77441406 C-4.75783337 80.4542723 -6.00707987 78.14219368 -7.26953125 75.8359375 C-11.33051161 68.39649448 -15.07794894 60.8255359 -18.75 53.1875 C-19.21043701 52.23206299 -19.67087402 51.27662598 -20.14526367 50.29223633 C-21.45635528 47.5393025 -22.73835323 44.77592185 -24 42 C-24.6197168 40.6399585 -24.6197168 40.6399585 -25.25195312 39.25244141 C-25.62771484 38.38151855 -26.00347656 37.5105957 -26.390625 36.61328125 C-26.72610352 35.84411377 -27.06158203 35.07494629 -27.40722656 34.2824707 C-28.13323769 31.48696902 -27.82446232 29.74896849 -27 27 C-25.3203125 24.74609375 -25.3203125 24.74609375 -23.125 22.4375 C-22.31804688 21.57640625 -21.51109375 20.7153125 -20.6796875 19.828125 C-19.79539062 18.89484375 -18.91109375 17.9615625 -18 17 C-17.04172876 15.95545142 -16.08605188 14.9085176 -15.1328125 13.859375 C-14.65312012 13.33158447 -14.17342773 12.80379395 -13.67919922 12.26000977 C-13.20756348 11.74108154 -12.73592773 11.22215332 -12.25 10.6875 C-2.48998665 0 -2.48998665 0 0 0 Z " fill="#020202" transform="translate(731,333)"/>
<path d="M0 0 C0.33 0.66 0.66 1.32 1 2 C-3.17225541 13.90063085 -10.48650672 23.91821387 -20 32 C-20.88558594 32.81984375 -21.77117187 33.6396875 -22.68359375 34.484375 C-38.08178672 48.16172492 -56.66955898 48.29982337 -76.15795898 48.25537109 C-78.17802064 48.2581254 -80.19808121 48.26180797 -82.21813965 48.26634216 C-86.54776412 48.27441656 -90.87733706 48.27663215 -95.20696831 48.27439499 C-102.06274968 48.27154744 -108.91842922 48.28596705 -115.77418518 48.30337524 C-135.26228318 48.35026642 -154.75037343 48.37434085 -174.23852539 48.38085938 C-185.01742953 48.38461681 -195.79621752 48.40269728 -206.57507187 48.43595374 C-213.38062295 48.45609675 -220.18587304 48.45857326 -226.99144161 48.44767356 C-231.23570779 48.44505523 -235.47980083 48.45912454 -239.72402191 48.47775459 C-241.68104736 48.48304902 -243.63810524 48.48162727 -245.59511757 48.47271919 C-259.17804264 48.41591194 -270.54981874 49.63925914 -282.6875 56.3125 C-284.42856509 57.26489719 -286.19334841 58.17879473 -288 59 C-288.66 58.67 -289.32 58.34 -290 58 C-289.43152344 57.443125 -288.86304688 56.88625 -288.27734375 56.3125 C-283.287091 51.38056406 -278.56815613 46.32103709 -274 41 C-271.35538249 37.97975543 -268.68645683 34.98305079 -266 32 C-265.154375 31.05125 -264.30875 30.1025 -263.4375 29.125 C-258.14453108 24.51061684 -252.88094393 23.55573334 -246.0330658 23.65510559 C-244.87365639 23.65360214 -244.87365639 23.65360214 -243.69082457 23.65206832 C-241.11517838 23.65214847 -238.54015247 23.673459 -235.96459961 23.69458008 C-234.11079153 23.69866374 -232.25697982 23.7013119 -230.40316772 23.70263672 C-226.41338716 23.70784797 -222.42376605 23.72180651 -218.43403435 23.742136 C-212.09486384 23.77294997 -205.75587471 23.77545347 -199.41664124 23.77262878 C-181.39002505 23.76832294 -163.36362788 23.79113755 -145.3371582 23.8659668 C-135.37844175 23.90706407 -125.42011006 23.91876579 -115.46132284 23.89972991 C-110.20743001 23.89099829 -104.95450487 23.89664281 -99.70075798 23.93934059 C-75.51240773 24.12791363 -53.97746756 23.09746366 -31 15 C-29.70116033 14.55192458 -29.70116033 14.55192458 -28.37608147 14.09479713 C-21.32799985 11.63778269 -15.01832965 8.71759221 -8.94140625 4.32421875 C-6.11405585 2.39570409 -3.18822366 1.22102183 0 0 Z " fill="#010101" transform="translate(424,518)"/>
<path d="M0 0 C-31.52601972 25.99219711 -31.52601972 25.99219711 -42 29 C-42.99 29.33 -43.98 29.66 -45 30 C-47.47470051 30.09944915 -49.91989173 30.13956737 -52.39477539 30.1328125 C-53.18476614 30.13417709 -53.97475689 30.13554169 -54.78868675 30.13694763 C-57.53754686 30.13904459 -60.28630603 30.13242097 -63.03515625 30.125 C-64.02283556 30.12378143 -65.01051487 30.12256287 -66.02812386 30.12130737 C-101.79552492 30.07151772 -137.56280684 29.53971705 -173.32712424 29.10923672 C-183.56732118 28.98608611 -193.80755554 28.8661882 -204.04779327 28.74648476 C-225.03190382 28.50112171 -246.01596719 28.25191882 -267 28 C-264.18160038 25.16357205 -261.40174425 22.39573509 -258.29296875 19.87890625 C-257.62330078 19.33556641 -256.95363281 18.79222656 -256.26367188 18.23242188 C-255.2359668 17.40581055 -255.2359668 17.40581055 -254.1875 16.5625 C-253.51396484 16.01529297 -252.84042969 15.46808594 -252.14648438 14.90429688 C-248.66779375 12.09138436 -245.15921491 9.31754661 -241.61328125 6.58984375 C-240.96786377 6.09218506 -240.32244629 5.59452637 -239.6574707 5.08178711 C-238 4 -238 4 -236 4 C-236 3.34 -236 2.68 -236 2 C-234.32635659 2.00414807 -234.32635659 2.00414807 -232.61890221 2.00837994 C-205.43368866 2.07506421 -178.24848577 2.12431789 -151.06320763 2.15543652 C-137.91645775 2.17088634 -124.769762 2.19193984 -111.62304688 2.22631836 C-100.16051624 2.25627839 -88.69802481 2.27558869 -77.23545611 2.28226548 C-71.16963064 2.28616654 -65.10391732 2.29529532 -59.0381279 2.31719017 C-53.32051834 2.33765966 -47.60306639 2.34381273 -41.88542366 2.33932304 C-39.794971 2.34014358 -37.70451268 2.34604648 -35.61409187 2.35761642 C-25.24474496 2.41215872 -15.6662516 2.25120341 -5.59282875 -0.45337963 C-3 -1 -3 -1 0 0 Z " fill="#060606" transform="translate(958,537)"/>
<path d="M0 0 C1.82043781 2.73065671 2.36073534 3.93043804 2.96484375 7 C3.20460938 8.19314819 3.20460938 8.19314819 3.44921875 9.41040039 C4.1289893 13.01556348 4.78594749 16.62485325 5.44482422 20.23388672 C5.98211379 22.91088356 6.64212531 25.52316463 7.34765625 28.16015625 C9.64500803 37.40879697 9.64500803 37.40879697 9 42 C6.27795765 46.20869625 2.81710318 48.76238764 -1.19775391 51.61181641 C-4.38086621 54.06361491 -7.0010106 57.02639878 -9.6875 60 C-10.23736572 60.60013916 -10.78723145 61.20027832 -11.35375977 61.81860352 C-16.1145183 67.04695564 -20.62890885 72.44126511 -25 78 C-25.51143555 78.64952637 -26.02287109 79.29905273 -26.54980469 79.96826172 C-34.85335802 90.53097569 -42.99699449 101.20810633 -51 112 C-51.55155762 112.74362793 -52.10311523 113.48725586 -52.67138672 114.25341797 C-60.6548074 125.02934687 -68.54707223 135.86891369 -76.38232422 146.75292969 C-79.12749647 150.56617529 -81.87556064 154.37733019 -84.625 158.1875 C-85.16576172 158.93708984 -85.70652344 159.68667969 -86.26367188 160.45898438 C-89.67231118 165.17832175 -93.10902787 169.87591241 -96.5625 174.5625 C-102.49643305 182.62266866 -108.25541023 190.80427295 -114 199 C-114.39832031 199.56783203 -114.79664063 200.13566406 -115.20703125 200.72070312 C-117.14111604 203.47831165 -119.07253869 206.23775791 -121 209 C-123.35227049 205.97971312 -125.38890552 202.87255159 -127.3125 199.5625 C-127.86550781 198.63566406 -128.41851563 197.70882812 -128.98828125 196.75390625 C-130 194 -130 194 -129.22949219 191.625 C-128.03820443 189.08156751 -126.75606371 186.67100765 -125.33984375 184.24609375 C-124.80254639 183.3240918 -124.26524902 182.40208984 -123.71166992 181.45214844 C-123.12619385 180.45731445 -122.54071777 179.46248047 -121.9375 178.4375 C-121.32044189 177.3846582 -120.70338379 176.33181641 -120.06762695 175.24707031 C-113.58764959 164.23086644 -106.95041253 153.3107103 -100.29145813 142.40216064 C-97.69162892 138.14107003 -95.10637584 133.87136114 -92.52734375 129.59765625 C-85.26341857 117.56717929 -77.97519048 105.56567715 -70.21777344 93.84423828 C-69.0032018 92.00484891 -67.80153556 90.15753183 -66.6015625 88.30859375 C-55.91433551 71.93930272 -43.92449987 56.4770645 -32 41 C-31.10528636 39.83607768 -30.21074605 38.67202209 -29.31640625 37.5078125 C-27.67580797 35.37266621 -26.03365023 33.23875151 -24.390625 31.10546875 C-22.77399434 29.00543382 -21.15908886 26.90419656 -19.546875 24.80078125 C-15.04152851 18.92593698 -10.50830886 13.07410719 -5.9375 7.25 C-5.45998291 6.64099854 -4.98246582 6.03199707 -4.49047852 5.40454102 C-1.12355878 1.12355878 -1.12355878 1.12355878 0 0 Z " fill="#020202" transform="translate(1252,459)"/>
<path d="M0 0 C36.74157041 -1.42649401 36.74157041 -1.42649401 44.42578125 3.9375 C47.37726296 6.68322042 49.57518059 9.7624718 51.70092773 13.1706543 C53.64425983 15.9072428 56.11137826 17.84248467 58.67358398 19.98632812 C63.00793019 23.73800065 67.00248588 27.85510194 71.0456543 31.9152832 C72.5599258 33.43491668 74.0794743 34.94912517 75.59960938 36.46289062 C80.94304444 41.80223545 86.12126432 47.22805249 91 53 C91.9617646 54.11759643 92.92398968 55.23479678 93.88671875 56.3515625 C94.82069501 57.44238094 95.75428052 58.53353405 96.6875 59.625 C97.19514893 60.21764648 97.70279785 60.81029297 98.22583008 61.42089844 C100.86225269 64.49909121 103.49530664 67.58011934 106.125 70.6640625 C110.58867561 75.89316218 115.05980596 81.10185707 119.6875 86.1875 C122.69814479 89.5008308 125.56565178 92.88941929 128.375 96.375 C131.61957941 100.38832994 134.98807453 104.22353988 138.5 108 C143.57996077 113.48204768 148.38516125 119.12029681 153 125 C153.64243652 125.81766846 153.64243652 125.81766846 154.29785156 126.65185547 C163.90015836 138.95502555 172.47710476 151.93581316 181 165 C181.66483398 166.01658691 182.32966797 167.03317383 183.01464844 168.08056641 C184.93586189 171.02690141 186.84547544 173.98035528 188.75 176.9375 C189.32218262 177.81809082 189.89436523 178.69868164 190.48388672 179.60595703 C199.7549441 194.12940679 199.7549441 194.12940679 199 203 C194.70042261 202.52226918 192.81080009 200.1188908 190 197 C188.59763871 194.68038848 187.31108969 192.39723181 186.0625 190 C173.16112606 166.18402437 156.74193057 142.61365802 136.1328125 124.9140625 C133.66067964 122.69548172 131.33437822 120.36293331 129 118 C125.5291138 114.49224551 121.99086219 111.17073902 118.24609375 107.9609375 C115.36344654 105.44426115 112.55706083 102.85039344 109.75 100.25 C108.91855469 99.48030884 108.91855469 99.48030884 108.0703125 98.69506836 C106.94013623 97.64857864 105.81009123 96.60194712 104.68017578 95.55517578 C96.51203166 87.9947169 88.29837146 80.50649527 79.8203125 73.29296875 C73.48515254 67.89680775 67.22808904 62.44453698 61.11816406 56.79394531 C58.44521046 54.32204665 55.75181016 51.8837697 53 49.5 C49.12027047 46.13542128 45.34142491 42.66411092 41.5625 39.1875 C38.39220211 36.27210044 35.20605243 33.37616922 32 30.5 C28.35616011 27.22869326 24.73337229 23.93534251 21.125 20.625 C20.6287915 20.1700415 20.13258301 19.71508301 19.62133789 19.24633789 C16.96776412 16.81158032 14.3192863 14.37146774 11.67578125 11.92578125 C11.13356934 11.42546387 10.59135742 10.92514648 10.03271484 10.40966797 C8.99368385 9.45078261 7.95616896 8.49025098 6.92041016 7.52783203 C4.6871424 5.46912205 2.53605959 3.6907064 0 2 C0 1.34 0 0.68 0 0 Z " fill="#040404" transform="translate(725,569)"/>
<path d="M0 0 C0 25.41 0 50.82 0 77 C-17.16 77 -34.32 77 -52 77 C-52 63.14 -52 49.28 -52 35 C-56.95 35 -61.9 35 -67 35 C-71.01696543 34.71048898 -74.99962655 34.41717116 -79 34 C-77.66394068 32.20376718 -76.32323339 30.41091596 -74.96826172 28.62890625 C-73.55614758 26.74281781 -72.17875972 24.83053909 -70.82470703 22.90234375 C-51.19154879 -4.6051974 -33.09714522 -2.45864507 0 0 Z " fill="#030303" transform="translate(639,642)"/>
<path d="M0 0 C0.66 0 1.32 0 2 0 C3.19824219 1.67041016 3.19824219 1.67041016 4.546875 4.0390625 C5.05476562 4.91836426 5.56265625 5.79766602 6.0859375 6.70361328 C6.90964844 8.14969971 6.90964844 8.14969971 7.75 9.625 C14.51885188 21.29406052 21.6791133 32.67134379 29 44 C29.5465625 44.84804199 30.093125 45.69608398 30.65625 46.56982422 C48.20582071 73.78536942 66.36117745 100.5876546 85.4609375 126.7421875 C86.05753174 127.56162842 86.65412598 128.38106934 87.26879883 129.2253418 C88.44225414 130.83610766 89.61904597 132.44444945 90.79956055 134.05004883 C91.33105713 134.7798999 91.86255371 135.50975098 92.41015625 136.26171875 C92.88590088 136.91100342 93.36164551 137.56028809 93.85180664 138.22924805 C95 140 95 140 96 143 C73.8684905 146.5783283 73.8684905 146.5783283 66.4921875 142.671875 C64.66466882 140.57066995 63.37732645 138.42042168 62 136 C60.50038621 134.02537043 58.97711117 132.06860514 57.4375 130.125 C56.57449895 128.99786933 55.71392156 127.86887983 54.85546875 126.73828125 C51.68224154 122.5740497 48.46716964 118.44282452 45.25 114.3125 C44.65759521 113.55146973 44.06519043 112.79043945 43.45483398 112.00634766 C42.24148992 110.44766343 41.02802888 108.88907025 39.81445312 107.33056641 C36.87486662 103.55482734 33.93752285 99.77734465 31 96 C29.83334461 94.49999123 28.66667793 92.99999124 27.5 91.5 C25.16666667 88.5 22.83333333 85.5 20.5 82.5 C19.92233887 81.75733887 19.34467773 81.01467773 18.74951172 80.24951172 C17.58429231 78.75127956 16.41925288 77.25290742 15.25439453 75.75439453 C12.31705371 71.97617113 9.37650792 68.20052324 6.4296875 64.4296875 C3.51518224 60.6995513 0.6159245 56.95789343 -2.27880859 53.21240234 C-4.03184346 50.95906873 -5.805987 48.72350502 -7.58203125 46.48828125 C-8.70114014 45.0551709 -9.81965535 43.62159669 -10.9375 42.1875 C-11.46424316 41.53571777 -11.99098633 40.88393555 -12.53369141 40.21240234 C-16.05986005 35.63716544 -16.05986005 35.63716544 -15.77490234 32.60400391 C-14.96303764 29.87579063 -13.92825914 27.51637771 -12.63671875 24.98046875 C-12.16169922 24.04009766 -11.68667969 23.09972656 -11.19726562 22.13085938 C-10.69904297 21.15955078 -10.20082031 20.18824219 -9.6875 19.1875 C-9.20087891 18.22779297 -8.71425781 17.26808594 -8.21289062 16.27929688 C-7.25929647 14.39906075 -6.30347079 12.51995439 -5.34521484 10.64208984 C-3.54397261 7.10433241 -1.77034447 3.55330422 0 0 Z " fill="#020202" transform="translate(685,392)"/>
<path d="M0 0 C1.29905777 0.00666183 1.29905777 0.00666183 2.62435913 0.01345825 C3.61895142 0.01369995 4.6135437 0.01394165 5.63827515 0.01419067 C6.68604126 0.02442261 7.73380737 0.03465454 8.81332397 0.04519653 C10.25518066 0.04821777 10.25518066 0.04821777 11.72616577 0.05130005 C15.32557937 0.06178405 18.92492509 0.08970652 22.52426147 0.11550903 C34.58988647 0.17738403 34.58988647 0.17738403 46.89926147 0.24050903 C46.89926147 24.66050903 46.89926147 49.08050903 46.89926147 74.24050903 C30.06926147 74.24050903 13.23926147 74.24050903 -4.10073853 74.24050903 C-4.10073853 61.04050903 -4.10073853 47.84050903 -4.10073853 34.24050903 C-14.00073853 34.24050903 -23.90073853 34.24050903 -34.10073853 34.24050903 C-27.36246664 26.37919183 -27.36246664 26.37919183 -24.04214478 23.11941528 C-23.32607056 22.41107544 -22.60999634 21.7027356 -21.8722229 20.97293091 C-20.40350743 19.53018742 -18.93475762 18.0874789 -17.4659729 16.64480591 C-13.30606315 12.52974694 -9.33055309 8.33195575 -5.52627563 3.88479614 C-2.39613099 0.27432788 -2.39613099 0.27432788 0 0 Z " fill="#000000" transform="translate(53.100738525390625,644.7594909667969)"/>
<path d="M0 0 C1.11761719 0.08636719 2.23523438 0.17273438 3.38671875 0.26171875 C23.67312115 2.95306743 38.3698007 21.83001144 50 37 C51.43264624 38.83571199 52.8708265 40.66695564 54.31030273 42.49731445 C55.21720788 43.65148428 56.12173301 44.80752885 57.02368164 45.96557617 C60.94437702 50.98699572 65.04666386 55.84122017 69.19921875 60.671875 C71 63 71 63 71 65 C63.64758297 65.44316967 56.29809541 65.77916555 48.93496323 65.98443127 C45.51365114 66.08305735 42.10154863 66.2162073 38.68554688 66.43334961 C16.64287686 67.79858295 16.64287686 67.79858295 10.61590576 63.16845703 C6.71152379 58.68431636 4.30165568 53.69472949 2.03936768 48.2381134 C-0.23478995 43.34107572 -4.15495961 39.71325473 -8 36 C-8.495 35.49597656 -8.99 34.99195313 -9.5 34.47265625 C-17.09670526 27.37232662 -25.74911543 25.3352111 -35.79663086 25.54711914 C-46.26558834 26.03282259 -57.37551316 29.44129663 -65.00390625 36.98046875 C-65.58011719 37.62628906 -66.15632812 38.27210938 -66.75 38.9375 C-68.36328125 40.71875 -68.36328125 40.71875 -70 42 C-73.9375 41.9375 -73.9375 41.9375 -77 41 C-75.69205792 37.46855637 -73.59982677 35.76680158 -70.6953125 33.47265625 C-68.81945986 31.84317136 -67.28691691 30.08820242 -65.6875 28.1875 C-48.48869349 8.22192896 -26.20092277 -2.11546079 0 0 Z " fill="#020202" transform="translate(732,654)"/>
<path d="M0 0 C16.83 0 33.66 0 51 0 C51.25275938 7.50086859 51.49281592 14.98609052 51.6210022 22.48752594 C51.68404203 25.98110938 51.76801964 29.47112409 51.90527344 32.96264648 C52.83985221 57.36595661 52.83985221 57.36595661 48.44897461 63.18530273 C45.65379666 66.04762971 42.46029897 68.00262955 39 70 C37.32119447 71.44163566 35.66895614 72.91565899 34.0625 74.4375 C33.25941406 75.15808594 32.45632812 75.87867188 31.62890625 76.62109375 C28.56594869 79.39277451 25.53176045 82.19429959 22.5 85 C20.85447329 86.52004085 19.20846343 88.03955489 17.56201172 89.55859375 C16.09399119 90.91326603 14.62703705 92.26909367 13.16015625 93.625 C11.87431641 94.800625 11.87431641 94.800625 10.5625 96 C9.82128906 96.680625 9.08007812 97.36125 8.31640625 98.0625 C5.70370873 100.24782541 2.83408538 102.11060975 0 104 C0 69.68 0 35.36 0 0 Z " fill="#010101" transform="translate(150,756)"/>
<path d="M0 0 C17.16 0 34.32 0 52 0 C52.27664108 7.77924975 52.51500282 15.54126873 52.65917969 23.3215332 C52.71929182 25.96307353 52.80101105 28.60421846 52.90527344 31.24438477 C53.79679197 54.41075599 53.79679197 54.41075599 49.49072266 60.04980469 C46.65353228 62.94228783 43.47463006 64.9431691 40 67 C38.81895727 68.01804346 37.66166953 69.06594356 36.5546875 70.1640625 C31.25729339 75.02901627 25.93715654 79.86652362 20.58203125 84.66796875 C18.67454929 86.39076259 16.77665505 88.12143914 14.88671875 89.86328125 C14.35498047 90.353125 13.82324219 90.84296875 13.27539062 91.34765625 C11.76950845 92.73684645 10.2655574 94.12812913 8.76171875 95.51953125 C1.54645669 102 1.54645669 102 0 102 C0 68.34 0 34.68 0 0 Z " fill="#040404" transform="translate(587,755)"/>
<path d="M0 0 C16.5 0 33 0 50 0 C50.14708133 7.5665174 50.28725252 15.12781979 50.36225128 22.69452667 C50.39912205 26.21844523 50.4483293 29.74117308 50.52807617 33.2644043 C50.61913655 37.31310106 50.65273198 41.36054981 50.68359375 45.41015625 C50.73778725 47.29179222 50.73778725 47.29179222 50.79307556 49.21144104 C50.79744884 58.97754436 50.79744884 58.97754436 46.68383789 63.15014648 C45.4802841 64.13081808 44.25198742 65.08196622 43 66 C41.78471076 67.05453675 40.57556192 68.11622656 39.375 69.1875 C38.70984375 69.76113281 38.0446875 70.33476563 37.359375 70.92578125 C34.40135585 73.52629146 31.51308932 76.19732622 28.625 78.875 C23.94979904 83.20734394 19.24593834 87.50322431 14.49609375 91.75390625 C12.64557071 93.41908739 10.80532237 95.09272513 8.97265625 96.77734375 C8.46686035 97.24124512 7.96106445 97.70514648 7.43994141 98.18310547 C6.00918876 99.4966824 4.58070555 100.81272995 3.15234375 102.12890625 C1 104 1 104 0 104 C0 69.68 0 35.36 0 0 Z " fill="#000000" transform="translate(49,755)"/>
<path d="M0 0 C0.00602811 2.50803035 0.00659547 5.01588749 0.00097656 7.52392578 C0.00029442 9.95201709 0.01380312 12.38013549 0.03808594 14.80810547 C0.22946371 42.2089001 0.22946371 42.2089001 -4.96875 48.57421875 C-7.79889205 51.22129354 -10.91907874 53.22783346 -14.32324219 55.06201172 C-16.57820839 56.32345321 -18.36920026 57.92666897 -20.25 59.6875 C-20.85714844 60.22117187 -21.46429687 60.75484375 -22.08984375 61.3046875 C-25.19126544 64.05727853 -28.2763744 66.82751253 -31.3515625 69.609375 C-33.17236951 71.25293531 -35.00095843 72.88790252 -36.8359375 74.515625 C-37.77695313 75.35609375 -38.71796875 76.1965625 -39.6875 77.0625 C-40.53699219 77.81660156 -41.38648438 78.57070313 -42.26171875 79.34765625 C-45.06327257 82.06128684 -47.58394295 84.90947184 -50.12817383 87.86108398 C-53.96455691 92.24487845 -58.0256498 96.42352824 -62.0390625 100.64453125 C-65.93255891 104.75600333 -69.73140175 108.9272158 -73.44140625 113.20507812 C-75.43152515 115.49695691 -77.46279515 117.74995285 -79.5 120 C-82.17048344 122.95869751 -84.82298058 125.92926472 -87.4375 128.9375 C-91.08937053 133.13164365 -94.84266184 137.23094292 -98.58984375 141.33984375 C-101.16870261 144.18620174 -103.69975464 147.06952892 -106.21875 149.96875 C-109.0592768 153.20794723 -111.95828313 156.39424647 -114.84765625 159.58984375 C-116.76815444 161.74038347 -118.64253437 163.92009475 -120.5 166.125 C-121.325 167.07375 -122.15 168.0225 -123 169 C-123.33 169 -123.66 169 -124 169 C-124.33868777 166.79248152 -124.67071689 164.58394089 -125 162.375 C-125.185625 161.14523437 -125.37125 159.91546875 -125.5625 158.6484375 C-126.59492426 150.03875664 -126.59492426 150.03875664 -124.5234375 146.421875 C-123.81445312 145.54015625 -123.10546875 144.6584375 -122.375 143.75 C-121.97821045 143.24678223 -121.5814209 142.74356445 -121.17260742 142.22509766 C-120.28233108 141.09708947 -119.3860542 139.97379972 -118.48486328 138.85449219 C-116.3140636 136.14331258 -114.19566384 133.39230899 -112.07055664 130.64526367 C-109.0579836 126.75498223 -106.02732219 122.87880691 -103 119 C-100.64457667 115.98014404 -98.29062418 112.95914774 -95.9375 109.9375 C-95.06907471 108.82387085 -95.06907471 108.82387085 -94.18310547 107.68774414 C-91.32532494 104.01659531 -88.48716343 100.33289283 -85.6875 96.6171875 C-78.96738836 87.70599754 -71.97080548 79.16386116 -64.58203125 70.79980469 C-62.00618821 67.86938573 -59.47220398 64.9034931 -56.9375 61.9375 C-56.44846191 61.36652588 -55.95942383 60.79555176 -55.45556641 60.20727539 C-52.93310571 57.26218386 -50.41445251 54.31388067 -47.8984375 51.36328125 C-42.67768039 45.24690277 -37.41536757 39.18318794 -32.01171875 33.2265625 C-30.15265331 31.16895609 -28.32071642 29.09153237 -26.5 27 C-25.33389889 25.66617202 -24.16720784 24.33285961 -23 23 C-22.02160156 21.88044922 -22.02160156 21.88044922 -21.0234375 20.73828125 C-16.49871839 15.62946203 -11.81349924 10.71026486 -7 5.875 C-6.13544189 5.00355347 -6.13544189 5.00355347 -5.25341797 4.11450195 C-1.12343632 0 -1.12343632 0 0 0 Z " fill="#030303" transform="translate(1261,537)"/>
<path d="M0 0 C3.71122499 2.96897999 5.71621917 6.31941276 6.609375 10.92578125 C6.9891414 17.03369081 5.02902157 21.09135921 1.1875 25.75 C-6.00772558 32.75076003 -15.58405952 34.99332309 -25.03515625 37.37304688 C-30.80602773 38.91446597 -36.23643934 40.76077073 -40.8125 44.75 C-41.89603746 47.70548377 -41.89603746 47.70548377 -40.8125 50.75 C-38.95064991 53.6612565 -36.95765096 56.17742452 -33.8125 57.75 C-16.44898868 59.9135921 -0.09234276 50.71622086 13.2421875 40.3828125 C17.84301999 36.42209584 20.50009534 33.20492165 23.1875 27.75 C27.70313207 22.82981978 34.34857734 17.12994015 41.1875 16.75 C43.1875 18.75 43.1875 18.75 43.25 21.375 C41.70732212 26.2752709 38.72677781 29.11348928 35.1875 32.75 C34.46304688 33.52472656 33.73859375 34.29945313 32.9921875 35.09765625 C26.28729079 42.07915761 18.91473946 47.96265329 11.1875 53.75 C9.85332031 54.75933594 9.85332031 54.75933594 8.4921875 55.7890625 C-5.01280667 65.64640551 -18.9583663 70.99811531 -35.82568359 68.4453125 C-45.82164588 66.61641298 -53.26550645 63.77562445 -60.1875 56.125 C-60.72375 55.34125 -61.26 54.5575 -61.8125 53.75 C-62.225 53.151875 -62.6375 52.55375 -63.0625 51.9375 C-65.1339012 45.89591317 -63.66494765 40.88930437 -61.53125 35.1796875 C-60.71802227 32.4306242 -60.52997176 29.92172903 -60.375 27.0625 C-59.71766943 18.59936896 -54.8125701 14.35648483 -48.64453125 8.9921875 C-33.58778058 -2.92860544 -17.76311821 -7.89471921 0 0 Z " fill="#040404" transform="translate(612.8125,372.25)"/>
<path d="M0 0 C1.25889038 -0.00290039 1.25889038 -0.00290039 2.54321289 -0.00585938 C3.4377417 -0.00134766 4.33227051 0.00316406 5.25390625 0.0078125 C6.16970459 0.00974609 7.08550293 0.01167969 8.02905273 0.01367188 C13.34986084 0.04770387 18.55082116 0.31858082 23.83984375 0.90625 C28.06186988 1.22761157 32.27100045 1.2480975 36.50390625 1.2578125 C37.30062744 1.26232422 38.09734863 1.26683594 38.91821289 1.27148438 C43.24757676 1.26067785 47.38332365 0.96117236 51.67993164 0.36425781 C56.00421722 -0.10419411 60.34638259 -0.05166172 64.69140625 -0.0546875 C65.64015625 -0.06693359 66.58890625 -0.07917969 67.56640625 -0.09179688 C68.47132812 -0.09373047 69.37625 -0.09566406 70.30859375 -0.09765625 C71.53618408 -0.10381958 71.53618408 -0.10381958 72.78857422 -0.11010742 C74.81640625 0.1328125 74.81640625 0.1328125 76.81640625 2.1328125 C77.18771371 5.02901072 77.28224046 6.51170021 75.50390625 8.8828125 C72.17495461 11.34870261 69.17085737 11.23102092 65.1875 11.16015625 C64.06923828 11.14791016 62.95097656 11.13566406 61.79882812 11.12304688 C59.4628225 11.08829638 57.12687515 11.04933561 54.79101562 11.00585938 C40.74051977 10.7481406 40.74051977 10.7481406 28.81640625 17.1328125 C26.25884093 22.23995075 23.58625196 28.39209246 24.81640625 34.1328125 C26.53635168 37.02645373 26.53635168 37.02645373 29.81640625 39.1328125 C33.85409357 39.68342349 37.81785087 39.46532929 41.87890625 39.2578125 C44.03589887 39.16330838 46.19352194 39.08202625 48.3515625 39.015625 C49.30426025 38.96809082 50.25695801 38.92055664 51.23852539 38.87158203 C54.27786672 39.17957476 55.57552519 40.11592058 57.81640625 42.1328125 C57.75390625 43.8828125 57.75390625 43.8828125 56.81640625 46.1328125 C51.59428721 49.58138167 47.53801797 51.32059359 41.2265625 51.125 C39.9262207 51.09986328 39.9262207 51.09986328 38.59960938 51.07421875 C36.78950339 51.03003813 34.97957199 50.97798599 33.16992188 50.91796875 C26.47527791 50.78537871 26.47527791 50.78537871 20.81640625 54.1328125 C19.42199578 56.21854677 19.42199578 56.21854677 18.56640625 58.5703125 C18.251875 59.33214844 17.93734375 60.09398437 17.61328125 60.87890625 C16.09557918 65.1716224 15.57884376 68.99787223 15.44140625 73.5703125 C15.39242187 74.68277344 15.3434375 75.79523438 15.29296875 76.94140625 C15.99529752 81.22351523 17.4462103 82.45168903 20.81640625 85.1328125 C23.56529161 85.62901614 25.71258313 85.83277695 28.453125 85.8046875 C29.1737764 85.81743713 29.8944278 85.83018677 30.63691711 85.84332275 C32.92631823 85.87950116 35.21424502 85.88233082 37.50390625 85.8828125 C39.80373011 85.90443416 42.10333267 85.9328786 44.4030304 85.96514893 C45.83084241 85.98289804 47.25877051 85.99319231 48.68669128 85.99530029 C53.59942576 86.02432225 53.59942576 86.02432225 55.81640625 87.1328125 C56.00390625 90.0078125 56.00390625 90.0078125 55.81640625 93.1328125 C46.99236668 99.01550555 32.25493911 97.80019206 21.81640625 98.1328125 C20.93275391 98.16149414 20.04910156 98.19017578 19.13867188 98.21972656 C16.42701344 98.2959618 13.71634659 98.34456364 11.00390625 98.3828125 C10.16206787 98.40424316 9.32022949 98.42567383 8.45288086 98.44775391 C3.73459405 98.47360753 0.64120763 98.2102389 -3.18359375 95.1328125 C-7.01867903 89.84303971 -6.77825312 84.39198352 -6.18359375 78.1328125 C-5.49677448 74.29215071 -4.71355759 70.51321071 -3.83984375 66.7109375 C-2.61903404 60.05461792 -2.80701324 55.94336252 -6.40625 50.3203125 C-7.62255785 46.89753665 -7.11312684 44.61289371 -6.18359375 41.1328125 C-4.39761757 39.02002848 -2.806173 37.35292237 -0.74609375 35.5703125 C3.17198428 32.12380852 5.65640678 29.37402964 6.81640625 24.1328125 C6.75279835 20.43226841 6.75279835 20.43226841 5.81640625 17.1328125 C1.65859271 14.36093681 -2.3500955 14.35561107 -7.25 13.79296875 C-10.18359375 13.1328125 -10.18359375 13.1328125 -12.18359375 10.1328125 C-12.12109375 7.6953125 -12.12109375 7.6953125 -11.18359375 5.1328125 C-7.4781432 1.7123966 -5.00411753 0.00745215 0 0 Z " fill="#040404" transform="translate(34.18359375,339.8671875)"/>
<path d="M0 0 C9.9 0 19.8 0 30 0 C32.041875 3.815625 34.08375 7.63125 36.1875 11.5625 C40.82622025 20.19918237 45.52780831 28.79067682 50.375 37.3125 C61.83997403 57.48131487 73.01130997 77.78443569 83.65039062 98.40234375 C84.95443167 100.91229251 86.27717664 103.41114928 87.609375 105.90625 C103.79759081 136.23034723 118.99701779 167.60874575 116 203 C114.984375 205.91796875 114.984375 205.91796875 114 208 C108.125 207.125 108.125 207.125 107 206 C106.94908771 204.38230928 106.96460706 202.76244614 107.0078125 201.14453125 C107.36100342 182.65446953 105.02989675 168.6571593 97 152 C96.54947266 151.06148193 96.54947266 151.06148193 96.08984375 150.10400391 C94.17628756 146.14745725 92.19695501 142.22721677 90.18798828 138.31835938 C89.34263887 136.66865982 88.50307788 135.01598859 87.66748047 133.36132812 C77.82499965 113.87247225 66.41131586 95.92674635 54.0625 77.94921875 C49.99886939 72.02042959 46.0111052 66.04237804 42.03353882 60.05575562 C30.40504006 42.5583309 18.8401045 25.26622312 5.5390625 8.98828125 C4.80429687 8.08464844 4.06953125 7.18101562 3.3125 6.25 C2.66925781 5.47140625 2.02601563 4.6928125 1.36328125 3.890625 C0 2 0 2 0 0 Z " fill="#050505" transform="translate(824,571)"/>
<path d="M0 0 C0.70898438 0.4125 1.41796875 0.825 2.1484375 1.25 C7.89747969 5.01145512 11.02065285 9.43292873 13 16 C17.58470609 38.80159677 6.05857804 60.71320242 -3 81 C-3.83032824 82.88241526 -4.65980656 84.76520573 -5.48828125 86.6484375 C-7.30788225 90.77370266 -9.14668303 94.88977841 -11 99 C-11.33 99 -11.66 99 -12 99 C-11.99887207 98.06430176 -11.99774414 97.12860352 -11.99658203 96.16455078 C-11.15686021 65.51520131 -11.15686021 65.51520131 -25.375 39.625 C-33.97743679 31.1890028 -42.45615683 28.8661133 -54.36914062 28.91210938 C-55.21669922 28.92048828 -56.06425781 28.92886719 -56.9375 28.9375 C-57.81212891 28.94201172 -58.68675781 28.94652344 -59.58789062 28.95117188 C-61.72529047 28.96285166 -63.86265463 28.98078311 -66 29 C-65.40687012 28.31055298 -65.40687012 28.31055298 -64.80175781 27.60717773 C-61.48867584 23.75216729 -61.48867584 23.75216729 -58.234375 19.84765625 C-44.82250691 3.71812015 -20.78094558 -12.83764978 0 0 Z " fill="#020202" transform="translate(97,531)"/>
<path d="M0 0 C6.60364436 3.82599205 11.45896578 8.4603145 13.8359375 15.90625 C20.16209499 45.61168516 2.16765159 74.24562141 -9.625 100.4375 C-9.955 100.4375 -10.285 100.4375 -10.625 100.4375 C-10.6343457 99.44532471 -10.64369141 98.45314941 -10.65332031 97.4309082 C-10.69373674 93.68617776 -10.7596264 89.94222522 -10.83251953 86.19799805 C-10.86043417 84.58937713 -10.88179254 82.98062657 -10.89599609 81.37182617 C-11.01063964 69.10878813 -11.45072338 56.37918778 -19.625 46.4375 C-20.24117187 45.65761719 -20.85734375 44.87773438 -21.4921875 44.07421875 C-27.3306596 37.06181899 -33.04784853 31.22200361 -42.46191406 30.09912109 C-49.50948782 29.56286929 -56.55891617 29.42559421 -63.625 29.4375 C-49.91786874 10.75792162 -24.77201525 -11.68667219 0 0 Z " fill="#020202" transform="translate(634.625,524.5625)"/>
<path d="M0 0 C2.45294175 -0.04961006 4.89027493 -0.049098 7.34375 0.0078125 C10.1322362 0.0018542 12.70932666 -0.16166619 15.46875 -0.4453125 C21.32980813 -0.85292898 27.20124068 -1.2473436 32 2.60595703 C36.07364095 7.07552654 39.19065282 12.180282 42.32617188 17.33056641 C44.99643442 21.58912106 48.03526639 25.5541258 51.0625 29.5625 C52.23172578 31.14394448 53.39840426 32.72727551 54.5625 34.3125 C55.13355469 35.08980469 55.70460938 35.86710938 56.29296875 36.66796875 C60.69351722 42.67970201 65.04331415 48.72813115 69.39550781 54.77490234 C70.99638463 56.99498623 72.60275431 59.21098549 74.2109375 61.42578125 C88.36541961 80.92870452 102.00455776 100.70158998 115 121 C115.62970703 121.9787207 116.25941406 122.95744141 116.90820312 123.96582031 C144.82128593 167.59680482 144.82128593 167.59680482 145.6875 187 C145.72166016 187.67933594 145.75582031 188.35867188 145.79101562 189.05859375 C145.87218646 190.70520211 145.93779221 192.35256624 146 194 C143.7658847 191.16538196 142.01418129 188.31241756 140.36328125 185.10546875 C139.87279297 184.15768555 139.38230469 183.20990234 138.87695312 182.23339844 C138.36068359 181.22825195 137.84441406 180.22310547 137.3125 179.1875 C136.22552654 177.09230983 135.13828707 174.99725765 134.05078125 172.90234375 C132.64762055 170.19094079 131.24555413 167.47908666 129.85302734 164.76220703 C118.63650439 142.88367352 104.49349566 123.55400024 88.5078125 104.9375 C86.15112768 102.17702183 83.84875658 99.381397 81.5625 96.5625 C77.60427044 91.69791376 73.53350939 86.93937822 69.43945312 82.18945312 C66.42768013 78.68783649 63.46948309 75.15222407 60.5625 71.5625 C55.94205788 65.87451891 51.13930778 60.35435149 46.328125 54.828125 C43.18058385 51.21265671 40.05467748 47.57915822 36.9375 43.9375 C36.44588379 43.36338379 35.95426758 42.78926758 35.44775391 42.19775391 C33.47145067 39.88914615 31.49599854 37.57981083 29.52050781 35.27050781 C28.03488485 33.53417986 26.54875259 31.79828902 25.0625 30.0625 C24.57434814 29.49184814 24.08619629 28.92119629 23.58325195 28.33325195 C20.92589847 25.23105132 18.25501066 22.14157777 15.56640625 19.06640625 C10.1463063 12.86240124 4.79382225 6.71135115 0 0 Z " fill="#050505" transform="translate(783,570)"/>
<path d="M0 0 C14.85 0 29.7 0 45 0 C42.53731343 14.7761194 42.53731343 14.7761194 40 22 C39.61972656 23.16273438 39.23945313 24.32546875 38.84765625 25.5234375 C29.95419787 50.74350552 11.00713751 74.25477899 -12 88 C-20.67708333 92 -20.67708333 92 -25 92 C-25 91.34 -25 90.68 -25 90 C-23.96875 89.2575 -22.9375 88.515 -21.875 87.75 C-16.83374835 83.56250871 -14.92527844 77.83158823 -12.6953125 71.85693359 C-12.04108392 70.10972061 -11.349842 68.37649498 -10.65625 66.64453125 C-2.35907899 45.06682739 -1.64956286 22.8464456 0 0 Z " fill="#040404" transform="translate(293,755)"/>
<path d="M0 0 C4.87506817 4.06374462 9.4660124 8.32154028 13.94506836 12.81567383 C14.59957977 13.46843292 15.25409119 14.12119202 15.92843628 14.79373169 C18.06807635 16.92900787 20.20408249 19.06787591 22.33984375 21.20703125 C23.83184955 22.69836293 25.32400373 24.18954618 26.81629944 25.68058777 C29.93034846 28.79316765 33.04259405 31.90753654 36.15356445 35.02319336 C40.15076982 39.02612538 44.15248774 43.02451152 48.15553951 47.02159595 C51.23097473 50.09342971 54.30403922 53.1676262 57.3763752 56.24255943 C58.85211245 57.71896557 60.32859786 59.19462427 61.80583 60.66953468 C63.85987263 62.72105441 65.91071088 64.77572312 67.96069336 66.83129883 C68.57619553 67.44477676 69.19169769 68.0582547 69.82585144 68.69032288 C74 72.8857317 74 72.8857317 74 74 C73.29617188 73.93296875 72.59234375 73.8659375 71.8671875 73.796875 C62.13226803 73.64436973 57.37627949 78.07183503 50.640625 84.41015625 C49.76921875 85.26480469 48.8978125 86.11945313 48 87 C44.86120619 85.6124182 42.77745205 84.00476592 40.390625 81.55078125 C39.71773437 80.86693359 39.04484375 80.18308594 38.3515625 79.47851562 C37.65804687 78.76373047 36.96453125 78.04894531 36.25 77.3125 C31.76480781 72.71219357 27.23996134 68.2720506 22.37890625 64.07055664 C17.41140148 59.74693103 12.53199932 55.34454233 7.75097656 50.81518555 C6.49868138 49.64519243 5.22983322 48.49267342 3.9453125 47.3581543 C-6.39049969 38.19962275 -6.39049969 38.19962275 -7.38467407 32.98062134 C-7.48380736 28.11608569 -6.29471087 23.65855922 -5 19 C-4.64422774 17.18044876 -4.29739752 15.35909392 -3.96484375 13.53515625 C-3.6301744 12.04250548 -3.28808645 10.55149263 -2.9375 9.0625 C-2.76412109 8.28455078 -2.59074219 7.50660156 -2.41210938 6.70507812 C-1.14174107 1.14174107 -1.14174107 1.14174107 0 0 Z " fill="#030303" transform="translate(657,463)"/>
<path d="M0 0 C-0.16653076 0.6077124 -0.33306152 1.2154248 -0.50463867 1.84155273 C-0.7441626 2.71755127 -0.98368652 3.5935498 -1.23046875 4.49609375 C-1.50681152 5.50269043 -1.7831543 6.50928711 -2.06787109 7.54638672 C-2.71449152 9.9421679 -3.34384317 12.34265071 -3.95947266 14.74658203 C-11.55324809 44.32064677 -11.55324809 44.32064677 -19.5 49.125 C-21.30909191 50.11585424 -23.13469757 51.03517389 -24.99609375 51.92382812 C-29.00329511 54.07584367 -32.45591761 57.04580709 -36 59.875 C-36.76038574 60.46949951 -37.52077148 61.06399902 -38.30419922 61.67651367 C-45.39423807 67.23338662 -52.22755396 73.06300006 -59 79 C-59.75539063 79.65484375 -60.51078125 80.3096875 -61.2890625 80.984375 C-65.76410416 84.87106457 -70.16225846 88.84155031 -74.5625 92.8125 C-76.69417481 94.72554149 -78.8401911 96.61887612 -81 98.5 C-85.71701284 102.61081039 -90.35638889 106.80667845 -95 111 C-99.83965872 115.37035848 -104.68147993 119.73831645 -109.5625 124.0625 C-110.20316406 124.63097656 -110.84382813 125.19945312 -111.50390625 125.78515625 C-113 127 -113 127 -114 127 C-115.06288022 121.34995249 -115.23872215 116.33279056 -113 111 C-107.76584482 103.94471229 -101.00023877 98.19969975 -94.50097656 92.34179688 C-91.66263583 89.68410805 -89.15180951 86.86459469 -86.64501953 83.8984375 C-83.77691191 80.58849317 -80.6253936 77.56455869 -77.5 74.5 C-73.00227191 70.05053433 -68.61981655 65.59072906 -64.53515625 60.75390625 C-62.22348109 58.11283208 -59.71141265 55.68688118 -57.1875 53.25 C-55.38785327 51.39893479 -53.72162838 49.51957491 -52.046875 47.55859375 C-47.26702069 42.05972514 -42.11764187 36.93160469 -36.96777344 31.7824707 C-35.26205402 30.07456944 -33.56450973 28.35881955 -31.8671875 26.64257812 C-25.97112832 20.71686495 -20.00511463 15.13643732 -13.43481445 9.95507812 C-10.0787602 7.26027391 -6.93149858 4.35959995 -3.77734375 1.43359375 C-2 0 -2 0 0 0 Z " fill="#040404" transform="translate(1253,609)"/>
<path d="M0 0 C5.31219123 0.50069958 10.38972602 1.19498504 15.5625 2.5625 C16.59503906 2.83191406 17.62757812 3.10132813 18.69140625 3.37890625 C19.45324219 3.58386719 20.21507812 3.78882813 21 4 C18.85978425 39.66373243 7.75064428 72.75288805 -7.03283691 104.89569092 C-7.96866801 106.93182929 -8.90054685 108.96972504 -9.83105469 111.00830078 C-34.94661525 165.99137702 -34.94661525 165.99137702 -45.0703125 169.7734375 C-47.77716888 170.09124655 -49.57638511 169.14448481 -52 168 C-50.52928347 164.51385712 -48.59594597 162.52953437 -45.8125 160 C-36.79442312 151.145014 -32.21499624 139.49494561 -27.625 127.9375 C-27.34686462 127.24302765 -27.06872925 126.5485553 -26.78216553 125.83303833 C-10.29891065 84.60259315 -2.3066056 44.17336069 0 0 Z " fill="#050505" transform="translate(1027,622)"/>
<path d="M0 0 C3.64388701 3.40381916 6.55525422 7.14259937 9.4375 11.1875 C9.92154297 11.80947266 10.40558594 12.43144531 10.90429688 13.07226562 C12.73123492 15.67040022 14.11554223 17.68925593 13.82910156 20.9387207 C13.04605826 23.38009243 12.04364639 25.65733122 11 28 C10.30865797 29.79849762 9.61796481 31.59726621 8.93704224 33.3997345 C-27.20695442 128.59941269 -27.20695442 128.59941269 -58 152 C-59.32 151.34 -60.64 150.68 -62 150 C-61.37849821 146.71478758 -60.20266675 144.58831107 -58.2734375 141.875 C-55.00006723 137.09249115 -52.27420266 132.14944858 -49.625 127 C-49.12315186 126.02796631 -48.62130371 125.05593262 -48.10424805 124.05444336 C-46.3894565 120.70957651 -44.69181671 117.356546 -43 114 C-42.68061462 113.36700989 -42.36122925 112.73401978 -42.03216553 112.08184814 C-32.96479322 94.08498296 -24.41958098 76.14157479 -18 57 C-17.63358398 55.90945313 -17.26716797 54.81890625 -16.88964844 53.6953125 C-12.10886676 39.34076122 -7.70342802 24.87768099 -3.47436523 10.35229492 C-3.16313721 9.28470947 -2.85190918 8.21712402 -2.53125 7.1171875 C-2.25861328 6.17472168 -1.98597656 5.23225586 -1.70507812 4.26123047 C-1 2 -1 2 0 0 Z " fill="#050505" transform="translate(1058,637)"/>
<path d="M0 0 C2.34090059 3.51135088 2.67838395 6.47908764 3.125 10.5625 C3.2084668 11.31265381 3.29193359 12.06280762 3.37792969 12.83569336 C6.89427101 47.39989333 -3.34726745 80.40109055 -13.72070312 112.96435547 C-14.83630194 116.46930153 -15.91495316 119.98456676 -16.984375 123.50390625 C-20.12890063 133.65254687 -23.79538148 142.31353407 -30 151 C-30.99 150.67 -31.98 150.34 -33 150 C-31.48642463 144.8695062 -29.93601316 139.75486794 -28.28125 134.66796875 C-27.98863281 133.76626953 -27.69601562 132.86457031 -27.39453125 131.93554688 C-26.80162518 130.11410836 -26.20530916 128.29377604 -25.60546875 126.47460938 C-21.90316898 115.01705171 -19.57956783 103.38820839 -17.74731445 91.50097656 C-17.44183968 89.52802838 -17.12432483 87.55695656 -16.80664062 85.5859375 C-14.45570588 70.73588158 -12.8015002 55.90923671 -13.0078125 40.859375 C-13.01921013 39.48471069 -13.01921013 39.48471069 -13.03083801 38.08227539 C-13.06291246 34.35203523 -13.09503739 30.62535774 -13.22265625 26.89697266 C-13.71009018 11.45538372 -13.71009018 11.45538372 -10.76843262 7.23168945 C-7.61494959 4.05509189 -4.03678325 1.9349114 0 0 Z " fill="#070707" transform="translate(1012,626)"/>
<path d="M0 0 C4.56688745 5.65896924 4.70713433 10.03127342 4.51953125 17.09765625 C3.40685806 25.45525416 -0.99000125 33.13658659 -7 39 C-13.06432863 43.23954196 -18.13099336 44.1867253 -25.4375 44.375 C-26.73558594 44.42398438 -28.03367188 44.47296875 -29.37109375 44.5234375 C-33 44 -33 44 -35.93359375 41.7734375 C-39.34907026 37.18933859 -38.79744326 33.50554826 -38 28 C-35.85559534 17.88374072 -33.13440498 8.00275357 -25.5625 0.625 C-17.68905185 -4.36791834 -8.02231961 -4.81339177 0 0 Z " fill="#FCFCFC" transform="translate(274,384)"/>
<path d="M0 0 C4.75268972 3.18930494 7.32903663 7.55585979 9.453125 12.76953125 C10.67185007 19.83813663 11.11916502 26.15444977 7.48828125 32.5703125 C4.26901644 36.7348462 0.0482044 39.73783812 -4.921875 41.39453125 C-12.61919465 42.03685204 -19.58513487 42.24469017 -25.921875 37.39453125 C-31.19818448 32.69996871 -32.67913858 27.40446283 -33.234375 20.51953125 C-32.99806677 13.33298101 -30.59014307 7.08193529 -25.6484375 1.8359375 C-18.27541627 -4.31936755 -8.29092094 -4.10197662 0 0 Z " fill="#030303" transform="translate(1010.921875,495.60546875)"/>
<path d="M0 0 C0.33 0 0.66 0 1 0 C1.669627 4.60368566 2.26484555 9.2071321 2.76416016 13.83251953 C2.97545211 15.77439321 3.21076584 17.71361791 3.44921875 19.65234375 C4.12370741 29.30527158 0.64258316 35.30147277 -4.61425781 42.95019531 C-6.04634848 45.06855917 -7.40078356 47.22162275 -8.7421875 49.3984375 C-46.03916002 109.89387059 -46.03916002 109.89387059 -60 114 C-60.99 114 -61.98 114 -63 114 C-61.73479046 110.57933144 -60.28334393 107.70174585 -58.20703125 104.70703125 C-57.65853516 103.91103516 -57.11003906 103.11503906 -56.54492188 102.29492188 C-55.97322266 101.47572266 -55.40152344 100.65652344 -54.8125 99.8125 C-54.26013672 99.01263672 -53.70777344 98.21277344 -53.13867188 97.38867188 C-50.86128083 94.0955803 -48.57992238 90.80727969 -46.24389648 87.55541992 C-41.89741855 81.47445183 -38.07262063 75.21666683 -34.4375 68.6875 C-33.84179199 67.62007568 -33.24608398 66.55265137 -32.63232422 65.45288086 C-23.38715138 48.66495561 -15.0014513 31.29121409 -7.57080078 13.62719727 C-5.51095044 8.81173304 -3.07688754 4.25291115 0 0 Z " fill="#060606" transform="translate(1075,674)"/>
<path d="M0 0 C1.19367188 -0.01675781 2.38734375 -0.03351563 3.6171875 -0.05078125 C8.33877245 0.43820249 11.56138056 1.78854955 14.97265625 5.11328125 C17.69444874 10.30775302 16.91871025 17.36187093 15.43359375 22.8828125 C12.29968097 30.40944822 7.5494067 37.42468826 0.32421875 41.45703125 C-3.83175802 43.07365454 -7.52840917 43.26646584 -11.875 42.3125 C-17.00458028 39.88819132 -22.16773194 36.37391419 -24.875 31.3125 C-26.08965428 25.34434292 -24.71368565 20.81492075 -21.5703125 15.72265625 C-10.53484405 0.03398337 -10.53484405 0.03398337 0 0 Z " fill="#FBFBFB" transform="translate(410.875,385.6875)"/>
<path d="M0 0 C5.57689299 43.22092068 -1.03576004 85.29820515 -16 126 C-16.99 126 -17.98 126 -19 126 C-19.3069178 119.08190695 -18.11234498 112.87768048 -16.6875 106.125 C-12.76828889 86.38018404 -10.73290805 67.11595132 -10.75 47 C-10.75059418 46.22537415 -10.75118835 45.45074829 -10.75180054 44.65264893 C-10.77838331 35.6080099 -10.85534174 26.59018647 -12.4074707 17.65405273 C-12.83566983 15.03938279 -12.81393209 13.54614655 -12 11 C-3.15714286 0 -3.15714286 0 0 0 Z " fill="#070707" transform="translate(990,654)"/>
<path d="M0 0 C0.495 0.99 0.495 0.99 1 2 C-4.23956288 15.779767 -11.64220692 27.73102085 -24.06201172 35.70556641 C-27.78483339 38.19213739 -31.24049395 41.03730455 -34.75 43.8125 C-36.27493741 44.99881665 -37.80098936 46.18370195 -39.328125 47.3671875 C-42.4902893 49.82325035 -45.6458379 52.28749172 -48.796875 54.7578125 C-75.91872124 76 -75.91872124 76 -83 76 C-83.0783545 72.23898406 -82.89631095 70.05604954 -80.421875 67.140625 C-78.02027919 64.98808357 -75.54028135 62.98743775 -73 61 C-71.94978758 60.15716286 -70.90034153 59.31337011 -69.8515625 58.46875 C-63.66227063 53.52019986 -57.34857688 48.74151675 -51 44 C-48.33117463 42.00286317 -45.66434237 40.00311382 -43 38 C-42.39655762 37.54657227 -41.79311523 37.09314453 -41.17138672 36.62597656 C-32.19216502 29.84013361 -23.95134738 22.46962366 -15.80615234 14.70898438 C-12.9652749 12.02094138 -10.0779042 9.38456138 -7.1875 6.75 C-3.54150589 3.42948708 -3.54150589 3.42948708 0 0 Z " fill="#080808" transform="translate(1221,682)"/>
<path d="M0 0 C2.9375 2 2.9375 2 5 5 C5.09332766 10.87964244 3.8415459 14.41148684 0 19 C-3.78237619 21.75498335 -6.46963384 22.41000275 -11.125 22.375 C-12.15882813 22.38273437 -13.19265625 22.39046875 -14.2578125 22.3984375 C-17 22 -17 22 -18.86328125 20.7109375 C-20.52526106 18.20940088 -20.19016013 15.99674313 -19.69921875 13.125 C-17.9987979 7.95724053 -13.99897192 4.41184888 -9.5 1.5625 C-5.83401985 -0.07409828 -3.93302979 -0.76950583 0 0 Z " fill="#F8F8F8" transform="translate(596,378)"/>
<path d="M0 0 C0.68384766 0.23396484 1.36769531 0.46792969 2.07226562 0.70898438 C3.73758501 1.27961829 5.40032493 1.85777098 7.0625 2.4375 C2.034695 9.93833103 -4.5054695 17.74605808 -12.9375 21.4375 C-20.03286618 9.25080236 -20.03286618 9.25080236 -19.8125 2.75 C-18.9375 -0.5625 -18.9375 -0.5625 -17.3125 -2.5625 C-11.83489105 -4.86886166 -5.35521117 -1.87616328 0 0 Z " fill="#080808" transform="translate(933.9375,783.5625)"/>
<path d="M0 0 C0.99 0.33 1.98 0.66 3 1 C2.12752935 6.95733866 -3.03528417 10.81981048 -7 15 C-8.05960938 16.17369141 -8.05960938 16.17369141 -9.140625 17.37109375 C-17.72735379 26.54617248 -28.50306077 32.20768866 -40 37 C-40.46118722 33.66584318 -40.32728672 31.11711274 -39 28 C-36.05876107 25.93368658 -32.99248396 24.53659528 -29.7421875 23.00390625 C-25.61824021 20.94838636 -22.35716045 18.18208484 -18.9375 15.125 C-17.77358322 14.09228366 -16.60952139 13.05973078 -15.4453125 12.02734375 C-14.59114746 11.2691333 -14.59114746 11.2691333 -13.71972656 10.49560547 C-10.99374627 8.12488496 -8.17877117 5.88540102 -5.3125 3.6875 C-4.35988281 2.94886719 -3.40726563 2.21023438 -2.42578125 1.44921875 C-1.22501953 0.73185547 -1.22501953 0.73185547 0 0 Z " fill="#080808" transform="translate(1174,742)"/>
<path d="M0 0 C2.12293055 3.44976214 2.53917282 5.98291964 2 10 C0.62798871 12.76575296 -1.11810528 15.19948745 -2.9375 17.6875 C-3.43822021 18.39011963 -3.93894043 19.09273926 -4.45483398 19.81665039 C-21.81130558 43.93710186 -21.81130558 43.93710186 -31 47 C-30.49447885 42.75484049 -29.71292331 40.00961066 -27.1875 36.5625 C-26.55714844 35.70011719 -25.92679688 34.83773437 -25.27734375 33.94921875 C-22.15568143 29.90658573 -18.93487357 25.94704398 -15.71264648 21.984375 C-10.04967803 14.94896948 -5.01126372 7.50703089 0 0 Z " fill="#0A0A0A" transform="translate(1071,728)"/>
<path d="M0 0 C1.2263757 2.45275141 1.11415314 4.0505781 1.09765625 6.7890625 C1.09443359 7.73007812 1.09121094 8.67109375 1.08789062 9.640625 C1.07951172 10.62546875 1.07113281 11.6103125 1.0625 12.625 C1.05798828 13.61757813 1.05347656 14.61015625 1.04882812 15.6328125 C1.03702161 18.08856722 1.01908582 20.54429106 1 23 C-3.62 22.34 -8.24 21.68 -13 21 C-16.21428571 9.88392857 -16.21428571 9.88392857 -16 5 C-14.3962669 4.35309078 -12.79199694 3.70751236 -11.1875 3.0625 C-9.84751953 2.52302734 -9.84751953 2.52302734 -8.48046875 1.97265625 C-5.46847959 0.79157704 -3.26236464 0 0 0 Z " fill="#0B0B0B" transform="translate(1021,536)"/>
<path d="M0 0 C-1.02499297 7.19122051 -9.09562343 12.4525803 -14.5625 16.5625 C-15.7028151 17.38272665 -16.84645302 18.19848915 -18 19 C-18.66 18.01 -19.32 17.02 -20 16 C-15.66666667 11.66666667 -11.33333333 7.33333333 -7 3 C-6.484375 2.401875 -5.96875 1.80375 -5.4375 1.1875 C-4 0 -4 0 0 0 Z " fill="#EBEBEB" transform="translate(944,787)"/>
<path d="M0 0 C8.58 0 17.16 0 26 0 C22.51251123 3.48748877 17.9682055 3.05395541 13.2578125 3.09765625 C11.54684752 3.09107562 9.83589566 3.07924823 8.125 3.0625 C7.24585938 3.05798828 6.36671875 3.05347656 5.4609375 3.04882812 C3.30726197 3.03712337 1.15362183 3.01919069 -1 3 C-0.67 2.01 -0.34 1.02 0 0 Z " fill="#EAEAEA" transform="translate(923,537)"/>
<path d="M0 0 C0.33 0 0.66 0 1 0 C1.33 4.95 1.66 9.9 2 15 C-1.74193548 10.01075269 -1.74193548 10.01075269 -2 7 C-1.411438 4.645752 -0.75407101 2.30657014 0 0 Z " fill="#151515" transform="translate(927,749)"/>
</svg>
